<?xml version="1.0" encoding="UTF-8" standalone="no"?>
<svg width="274px" height="252px" viewBox="0 0 274 252" version="1.1" xmlns="http://www.w3.org/2000/svg" xmlns:xlink="http://www.w3.org/1999/xlink" xmlns:sketch="http://www.bohemiancoding.com/sketch/ns">
    <!-- Generator: sketchtool 3.5.2 (25235) - http://www.bohemiancoding.com/sketch -->
    <title>bd</title>
    <desc>Created with sketchtool.</desc>
    <defs>
        <path id="path-1" d="M101,202 C156.78076,202 202,156.78076 202,101 C202,45.2192403 156.78076,0 101,0 C45.2192403,0 0,45.2192403 0,101 C0,156.78076 45.2192403,202 101,202 Z"></path>
        <path d="M138.995117,213 L83,213 L74,218 L63,213 L62,205 C41.6535963,195.120389 25.2183237,179.044317 15,159 L12,156 L5,154 L0,142 L5,135 C3.21716844,126.603846 2.08747343,117.758277 2,109 C2.08747343,96.5430286 4.08458782,84.8969902 8,74 L3,66 L8,55 L18,53 C28.2152452,35.3820785 43.5294219,21.2002495 62,12 L63,5 L74,0 L82,4 C91.055305,1.93084057 100.419435,0.660945427 110,1 C119.672645,0.660945427 128.976781,1.91484189 138,4 L146,0 L157,5 L158,12 C175.755433,20.697291 190.693045,34.202176 201,51 L211,53 L216,64 L211,71 C215.724719,82.9691493 218.067501,95.5391114 218,109 C218.067501,116.74536 217.174584,124.632709 215,132 L221,140 L216,151 L208,154 C208.17642,153.832698 206,159 206,159 C195.309616,178.724743 178.599169,195.147687 158,205 L157,213 L146,218 L138.995117,213 Z M138,205 C179.788015,192.504559 210,154.21372 210,109 C210,53.7755377 165.191022,9 110,9 C54.8084776,9 10,53.7755377 10,109 C10,154.521697 40.6245847,193.025082 82,205 L138,205 Z" id="path-3"></path>
        <path d="M30,152 L14,152 L7.96240234,116 L0,116 L0,52 L21,52 L21,24 L23,24 L23,52 L44,52 L44,116 L36.1208496,116 L30,152 Z M21.0959778,56 L6,56 L6,105 L22.0842285,99 L38,105 L38,56 L22.9104004,56 L22.9104004,70.0109863 L21.0959778,70.0109863 L21.0959778,56 Z M22.0015201,24 C28.6297767,24 34.0030403,18.627417 34.0030403,12 C34.0030403,5.372583 28.6297767,0 22.0015201,0 C15.3732636,0 10,5.372583 10,12 C10,18.627417 15.3732636,24 22.0015201,24 Z" id="path-5"></path>
    </defs>
    <g id="Welcome" stroke="none" stroke-width="1" fill="none" fill-rule="evenodd" sketch:type="MSPage">
        <g id="Drummar-1" sketch:type="MSArtboardGroup" transform="translate(-507.000000, -701.000000)">
            <g id="drums" sketch:type="MSLayerGroup" transform="translate(29.000000, 667.000000)">
                <g id="bd" transform="translate(478.000000, 34.000000)">
                    <g id="head" transform="translate(35.000000, 10.000000)">
                        <mask id="mask-2" sketch:name="Mask" fill="white">
                            <use xlink:href="#path-1"></use>
                        </mask>
                        <use id="Mask" fill="#FFFFFF" sketch:type="MSShapeGroup" xlink:href="#path-1"></use>
                        <rect id="Rectangle-13" fill="#F5F5F5" sketch:type="MSShapeGroup" mask="url(#mask-2)" x="1" y="-9" width="101" height="218"></rect>
                        <path d="M60,38.6995305 L63.0798122,38.6995305 C64.5882068,38.6995305 65.7528918,38.5620246 66.6103286,38.3239437 C67.4534217,38.0119928 68.2940484,37.5227276 69.0892019,36.8215962 C70.6940415,35.4121404 71.4929577,33.5702009 71.4929577,31.2629108 C71.4929577,29.0228447 70.7261265,27.1904987 69.1643192,25.7793427 C68.435224,25.1054943 67.5913888,24.6162292 66.685446,24.3521127 C65.8880064,24.0659392 64.8648281,23.9205495 63.6056338,23.9014085 C63.2441301,23.3554326 62.6390666,23 61.9530516,23 C60.8733741,23 60,23.8707339 60,24.9530516 C60,26.0189435 60.8733741,26.8896774 61.9530516,26.9061033 C62.6409499,26.8896774 63.2474405,26.5322972 63.6056338,26.0046948 C65.3385065,26.0440999 66.6719606,26.4933538 67.5868545,27.3568075 C68.6854986,28.351314 69.2309434,29.6688123 69.2394366,31.2629108 C69.2309434,32.9050461 68.6790817,34.2129511 67.5868545,35.2441315 C67.0363056,35.7031536 66.4331078,36.0581107 65.7840376,36.2957746 C65.0983523,36.4930196 64.2609341,36.5985473 63.2300469,36.5962441 L62.2535211,36.5962441 L62.2535211,29.3098592 L60,29.3098592 L60,37.6478873 L60,38.6995305 Z M73.8967136,29.3098592 L76.0751174,29.3098592 L76.0751174,30.2112676 C76.4406827,29.7632878 76.7909125,29.47833 77.1267606,29.3098592 C77.4085997,29.1645514 77.7779329,29.084507 78.1784038,29.084507 C78.7713267,29.084507 79.3635334,29.2702099 79.9812207,29.6103286 L79.0046948,31.6384977 C78.5898374,31.3257698 78.191849,31.1784882 77.8028169,31.1877934 C76.6317112,31.1784882 76.0458723,32.0685814 76.0751174,33.8169014 L76.0751174,38.6995305 L73.8967136,38.6995305 L73.8967136,29.3098592 Z M87.342723,34.7183099 C87.3104925,36.2895067 86.6993276,37.0657608 85.4647887,37.0469484 C84.2546309,37.0657608 83.6434659,36.2895067 83.6619718,34.7183099 L83.6619718,29.3098592 L81.4835681,29.3098592 L81.4835681,34.7934272 C81.4835681,35.6447568 81.5731629,36.2927045 81.7840376,36.7464789 C81.9379475,37.2165248 82.2547294,37.6559744 82.685446,38.0234742 C83.4322796,38.6824415 84.3570266,39 85.4647887,39 C86.6033316,39 87.5312785,38.6824415 88.2441315,38.0234742 C88.7024289,37.6559744 89.0128111,37.2165248 89.2206573,36.7464789 C89.3775957,36.1836423 89.4703904,35.5356947 89.4460094,34.7934272 L89.4460094,31.0375587 C89.9987059,30.6645167 90.3474178,30.0644709 90.3474178,29.3849765 C90.3474178,28.3053409 89.4764071,27.4319249 88.3943662,27.4319249 C87.3275147,27.4319249 86.456504,28.3053409 86.4413146,29.3849765 C86.456504,30.0545117 86.7951017,30.6469672 87.342723,30.9624413 L87.342723,34.7183099 Z M92.2253521,29.3098592 L94.4037559,29.3098592 L94.4037559,30.2112676 C94.8052648,29.7728932 95.1610005,29.47833 95.4553991,29.3098592 C95.7699265,29.1645514 96.1641201,29.084507 96.657277,29.084507 C97.6960498,29.084507 98.5325094,29.5455625 99.1361502,30.4366197 C99.8272784,29.5455625 100.747063,29.084507 101.915493,29.084507 C104.016035,29.084507 105.070423,30.3620149 105.070423,32.915493 L105.070423,38.6995305 L102.892019,38.6995305 L102.892019,33.5164319 C102.897529,32.6064892 102.788565,31.9725379 102.591549,31.6384977 C102.346292,31.2233116 101.977737,31.0344069 101.464789,31.0375587 C100.868851,31.0344069 100.434597,31.2585311 100.187793,31.713615 C99.8897684,32.1550413 99.7535633,32.8754404 99.7370892,33.8920188 L99.7370892,38.6995305 L97.5586854,38.6995305 L97.5586854,33.5164319 C97.5806696,31.8668681 97.0999458,31.0344069 96.1314554,31.0375587 C95.5295576,31.0344069 95.0856892,31.2617329 94.7793427,31.713615 C94.5280411,32.1710503 94.3886312,32.8882477 94.4037559,33.8920188 L94.4037559,38.6995305 L92.2253521,38.6995305 L92.2253521,29.3098592 Z M107.774648,29.3098592 L109.953052,29.3098592 L109.953052,30.2112676 C110.354561,29.7728932 110.710296,29.47833 111.004695,29.3098592 C111.319222,29.1645514 111.713416,29.084507 112.206573,29.084507 C113.245346,29.084507 114.081805,29.5455625 114.685446,30.4366197 C115.376574,29.5455625 116.296359,29.084507 117.464789,29.084507 C119.565331,29.084507 120.619718,30.3620149 120.619718,32.915493 L120.619718,38.6995305 L118.441315,38.6995305 L118.441315,33.5164319 C118.446825,32.6064892 118.337861,31.9725379 118.140845,31.6384977 C117.895588,31.2233116 117.527033,31.0344069 117.014085,31.0375587 C116.418147,31.0344069 115.983893,31.2585311 115.737089,31.713615 C115.439064,32.1550413 115.302859,32.8754404 115.286385,33.8920188 L115.286385,38.6995305 L113.107981,38.6995305 L113.107981,33.5164319 C113.129965,31.8668681 112.649242,31.0344069 111.680751,31.0375587 C111.078853,31.0344069 110.634985,31.2617329 110.328638,31.713615 C110.077337,32.1710503 109.937927,32.8882477 109.953052,33.8920188 L109.953052,38.6995305 L107.774648,38.6995305 L107.774648,29.3098592 Z M130.235349,29.3446803 L132.413146,29.3446803 L132.413146,38.7301907 L130.235349,38.7301907 L130.235349,37.7473138 C129.342383,38.5824421 128.381978,39 127.354104,39 C126.056414,39 124.983587,38.5310504 124.135591,37.5931371 C123.294019,36.6359515 122.873239,35.4410936 122.873239,34.0085274 C122.873239,32.6016574 123.294019,31.4292833 124.135591,30.49137 C124.977162,29.5534567 126.030717,29.084507 127.296287,29.084507 C128.388403,29.084507 129.36808,29.5341848 130.235349,30.4335537 L130.235349,29.3446803 Z M125.126761,33.9989859 C125.126761,34.8963926 125.36664,35.6271271 125.846407,36.1912113 C126.338967,36.7617055 126.959456,37.0469484 127.707892,37.0469484 C128.507503,37.0469484 129.153579,36.7713204 129.64614,36.2200563 C130.1387,35.6495621 130.384977,34.9252376 130.384977,34.047061 C130.384977,33.1688845 130.1387,32.44456 129.64614,31.8740657 C129.153579,31.3163916 128.5139,31.0375587 127.727083,31.0375587 C126.985044,31.0375587 126.364555,31.3195966 125.865597,31.8836808 C125.373037,32.454175 125.126761,33.1592697 125.126761,33.9989859 Z M135.117371,29.3098592 L137.295775,29.3098592 L137.295775,30.2112676 C137.66134,29.7632878 138.01157,29.47833 138.347418,29.3098592 C138.629257,29.1645514 138.99859,29.084507 139.399061,29.084507 C139.991984,29.084507 140.584191,29.2702099 141.201878,29.6103286 L140.225352,31.6384977 C139.810495,31.3257698 139.412506,31.1784882 139.023474,31.1877934 C137.852368,31.1784882 137.26653,32.0685814 137.295775,33.8169014 L137.295775,38.6995305 L135.117371,38.6995305 L135.117371,29.3098592 Z" id="logo" fill="#B0BEC5" sketch:type="MSShapeGroup" mask="url(#mask-2)"></path>
                    </g>
                    <g id="legs" transform="translate(1.000000, 151.000000)" sketch:type="MSShapeGroup">
                        <path d="M13.6290182,54.3154452 L43.4415235,2.67867143 L39.9774218,0.678671428 L10.1743879,52.2990405 C9.48301837,52.1042222 8.75368038,52 8,52 C3.581722,52 0,55.581722 0,60 C0,64.418278 3.581722,68 8,68 C12.418278,68 16,64.418278 16,60 C16,57.7767366 15.0930828,55.7652951 13.6290182,54.3154452 Z" id="Rectangle-11" fill="#B0BEC5"></path>
                        <path d="M242.187495,54.3154452 L272,2.67867143 L268.535898,0.678671428 L238.732864,52.2990405 C238.041495,52.1042222 237.312157,52 236.558477,52 C232.140199,52 228.558477,55.581722 228.558477,60 C228.558477,64.418278 232.140199,68 236.558477,68 C240.976755,68 244.558477,64.418278 244.558477,60 C244.558477,57.7767366 243.651559,55.7652951 242.187495,54.3154452 Z" id="Rectangle-11" fill="#CFD8DC" transform="translate(250.279238, 34.339336) scale(-1, 1) translate(-250.279238, -34.339336) "></path>
                    </g>
                    <g id="shell" transform="translate(26.000000, 1.000000)">
                        <mask id="mask-4" sketch:name="Mask" fill="white">
                            <use xlink:href="#path-3"></use>
                        </mask>
                        <use id="Mask" fill="#009688" sketch:type="MSShapeGroup" xlink:href="#path-3"></use>
                        <rect id="Rectangle-1" fill="#00897B" sketch:type="MSShapeGroup" mask="url(#mask-4)" x="0" y="0" width="111" height="218"></rect>
                    </g>
                    <g id="pedal" transform="translate(115.000000, 99.000000)">
                        <mask id="mask-6" sketch:name="Mask" fill="white">
                            <use xlink:href="#path-5"></use>
                        </mask>
                        <use id="Mask" fill="#CFD8DC" sketch:type="MSShapeGroup" xlink:href="#path-5"></use>
                        <rect id="Rectangle-19" fill="#B0BEC5" sketch:type="MSShapeGroup" mask="url(#mask-6)" x="-6" y="0" width="28" height="154"></rect>
                    </g>
                </g>
            </g>
        </g>
    </g>
</svg>