<?xml version="1.0" encoding="UTF-8" standalone="no"?>
<svg width="174px" height="284px" viewBox="0 0 174 284" version="1.1" xmlns="http://www.w3.org/2000/svg" xmlns:xlink="http://www.w3.org/1999/xlink" xmlns:sketch="http://www.bohemiancoding.com/sketch/ns">
    <!-- Generator: sketchtool 3.5.2 (25235) - http://www.bohemiancoding.com/sketch -->
    <title>c</title>
    <desc>Created with sketchtool.</desc>
    <defs>
        <path d="M61,0 L61,85 L63,85 L63,90 L61,90 L61,145 L63,145 L63,150 L111,208 L112,215 L113,215 L116,223 L116,225 L106,225 L106,216 L107,216 L106,210 L80,178 L63,192 L63,197 L59,197 L59,201 L60,201 L60,211 L56,211 L56,201 L57,201 L57,197 L53,197 L53,192 L36,178 L10,210 L9,216 L10,216 L10,225 L0,225 L0,223 L3,215 L4,215 L5,208 L54,150 L53,150 L53,148 L52,149 L52,151 L48,151 L48,148 L49,148 L48,148 C47.7185,148.025051 47.4324,147.738986 47,147 C47.4324,147.048255 47.7185,146.76219 48,147 L49,147 L48,146 L48,144 L52,144 L52,146 L53,147 L53,145 L55,145 L55,90 L53,90 L53,89 L52,89 L52,91 L48,91 L48,89 L49,88 L48,88 C47.7185,88.3824375 47.4324,88.1016685 47,88 C47.4324,87.4002458 47.7185,87.1134818 48,87 L49,87 L48,87 L48,84 L52,84 L52,86 L53,87 L53,85 L55,85 L55,0 L61,0 Z M61,188 L61,156 L77,175 L61,188 Z M55,189 L39,176 L55,157 L55,189 Z" id="path-1"></path>
        <path id="path-3" d="M86,0 C133.465,0 172,12.0975959 172,27 C172,41.9014116 133.465,54 86,54 C38.5353,54 0,41.9014116 0,27 C0,12.0975959 38.5353,0 86,0 L86,0 Z"></path>
        <ellipse id="path-5" cx="18" cy="6" rx="18" ry="6"></ellipse>
    </defs>
    <g id="Welcome" stroke="none" stroke-width="1" fill="none" fill-rule="evenodd" sketch:type="MSPage">
        <g id="Drummar-1" sketch:type="MSArtboardGroup" transform="translate(-29.000000, -699.000000)">
            <g id="drums" sketch:type="MSLayerGroup" transform="translate(29.000000, 667.000000)">
                <g id="c" transform="translate(0.000000, 32.000000)">
                    <g id="stend" transform="translate(29.000000, 58.000000)">
                        <mask id="mask-2" sketch:name="Mask" fill="white">
                            <use xlink:href="#path-1"></use>
                        </mask>
                        <use id="Mask" fill="#CFD8DC" sketch:type="MSShapeGroup" xlink:href="#path-1"></use>
                        <rect id="Rectangle-15" fill="#B0BEC5" sketch:type="MSShapeGroup" mask="url(#mask-2)" x="0" y="-1" width="58" height="226"></rect>
                    </g>
                    <g id="cimbal" transform="translate(1.000000, 1.000000)">
                        <g id="Oval" transform="translate(0.000000, 3.000000)">
                            <mask id="mask-4" sketch:name="Mask" fill="white">
                                <use xlink:href="#path-3"></use>
                            </mask>
                            <use id="Mask" fill="#FFD740" sketch:type="MSShapeGroup" xlink:href="#path-3"></use>
                            <rect id="Rectangle-20" fill="#FBC02D" sketch:type="MSShapeGroup" mask="url(#mask-4)" x="0" y="0" width="86" height="54"></rect>
                        </g>
                        <g id="Oval" transform="translate(68.000000, 0.000000)">
                            <g id="Rectangle-26" transform="translate(0.000000, 13.000000)">
                                <mask id="mask-6" sketch:name="Mask" fill="white">
                                    <use xlink:href="#path-5"></use>
                                </mask>
                                <use id="Mask" fill="#F9A825" sketch:type="MSShapeGroup" xlink:href="#path-5"></use>
                                <rect fill="#FB8C00" sketch:type="MSShapeGroup" mask="url(#mask-6)" x="0" y="0" width="18" height="12"></rect>
                            </g>
                            <rect id="Rectangle-21" fill="#CFD8DC" sketch:type="MSShapeGroup" x="17" y="0" width="2" height="17" rx="8"></rect>
                        </g>
                    </g>
                </g>
            </g>
        </g>
    </g>
</svg>