<?xml version="1.0" encoding="UTF-8" standalone="no"?>
<svg width="1382px" height="328px" viewBox="0 0 1382 328" version="1.1" xmlns="http://www.w3.org/2000/svg" xmlns:xlink="http://www.w3.org/1999/xlink">
    <!-- Generator: sketchtool 3.6 (26304) - http://www.bohemiancoding.com/sketch -->
    <title>drums</title>
    <desc>Created with sketchtool.</desc>
    <defs>
        <path d="M61,0 L61,85 L63,85 L63,90 L61,90 L61,145 L63,145 L63,150 L111,208 L112,215 L113,215 L116,223 L116,225 L106,225 L106,216 L107,216 L106,210 L80,178 L63,192 L63,197 L59,197 L59,201 L60,201 L60,211 L56,211 L56,201 L57,201 L57,197 L53,197 L53,192 L36,178 L10,210 L9,216 L10,216 L10,225 L0,225 L0,223 L3,215 L4,215 L5,208 L54,150 L53,150 L53,148 L52,149 L52,151 L48,151 L48,148 L49,148 L48,148 C47.7185,148.025051 47.4324,147.738986 47,147 C47.4324,147.048255 47.7185,146.76219 48,147 L49,147 L48,146 L48,144 L52,144 L52,146 L53,147 L53,145 L55,145 L55,90 L53,90 L53,89 L52,89 L52,91 L48,91 L48,89 L49,88 L48,88 C47.7185,88.3824375 47.4324,88.1016685 47,88 C47.4324,87.4002458 47.7185,87.1134818 48,87 L49,87 L48,87 L48,84 L52,84 L52,86 L53,87 L53,85 L55,85 L55,0 L61,0 Z M61,188 L61,156 L77,175 L61,188 Z M55,189 L39,176 L55,157 L55,189 Z" id="path-1"></path>
        <path id="path-3" d="M86,0 C133.465,0 172,12.0975959 172,27 C172,41.9014116 133.465,54 86,54 C38.5353,54 0,41.9014116 0,27 C0,12.0975959 38.5353,0 86,0 L86,0 Z"></path>
        <ellipse id="path-5" cx="18" cy="6" rx="18" ry="6"></ellipse>
        <path d="M61,0 L61,67 L63,67 L63,72 L61,72 L61,127 L63,127 L63,132 L111,190 L112,197 L113,197 L116,205 L116,207 L106,207 L106,198 L107,198 L106,192 L80,160 L63,174 L53,174 L36,160 L10,192 L9,198 L10,198 L10,207 L0,207 L0,205 L3,197 L4,197 L5,190 L54,132 L53,132 L53,130 L52,131 L52,133 L48,133 L48,130 L49,130 L48,130 C47.7185,130.025051 47.4324,129.738986 47,129 C47.4324,129.048255 47.7185,128.76219 48,129 L49,129 L48,128 L48,126 L52,126 L52,128 L53,129 L53,127 L55,127 L55,72 L53,72 L53,71 L52,71 L52,73 L48,73 L48,71 L49,70 L48,70 C47.7185,70.3824375 47.4324,70.1016685 47,70 C47.4324,69.4002458 47.7185,69.1134818 48,69 L49,69 L48,69 L48,66 L52,66 L52,68 L53,69 L53,67 L55,67 L55,0 L61,0 Z M61,170 L61,138 L77,157 L61,170 Z M55,171 L39,158 L55,139 L55,171 Z" id="path-7"></path>
        <path d="M27,76 L11,76 L3.96240234,41 L0,41 L4,0 L33,0 L37,41 L33.1208496,41 L27,76 Z M18.0959778,8 L6,8 L3,30 L19.0842285,24 L34,30 L31,8 L19.9104004,8 L19.9104004,24.0109863 L18.0959778,24.0109863 L18.0959778,8 Z" id="path-9"></path>
        <path id="path-11" d="M66,0 C102.426,0 132,9.41 132,21 C132,32.59 102.426,42 66,42 C29.5736,42 0,32.59 0,21 C0,9.41 29.5736,0 66,0 L66,0 Z"></path>
        <path id="path-13" d="M66,0 C102.426,0 132,9.41 132,21 C132,32.59 102.426,42 66,42 C29.5736,42 0,32.59 0,21 C0,9.41 29.5736,0 66,0 L66,0 Z"></path>
        <path id="path-15" d="M66,0 C102.426,0 132,9.41 132,21 C132,32.59 102.426,42 66,42 C29.5736,42 0,32.59 0,21 C0,9.41 29.5736,0 66,0 L66,0 Z"></path>
        <ellipse id="path-17" cx="18" cy="6" rx="18" ry="6"></ellipse>
        <path d="M61,0 L61,6 L63,6 L63,12 L61,12 L61,66 L63,66 L63,71 L111,129 L112,136 L113,136 L116,144 L116,146 L106,146 L106,137 L107,137 L106,131 L80,99 L63,113 L63,118 L59,118 L59,122 L60,122 L60,132 L56,132 L56,122 L57,122 L57,118 L53,118 L53,113 L36,99 L10,131 L9,137 L10,137 L10,146 L0,146 L0,144 L3,136 L4,136 L5,129 L54,71 L53,69 L52,70 L52,72 L48,72 L48,70 L49,69 L48,69 C47.7185,69.053444 47.4324,68.7674849 47,68 C47.4324,68.0770082 47.7185,67.7910491 48,68 L49,68 L48,67 L48,65 L52,65 L52,67 L53,68 L53,66 L55,66 L55,12 L53,12 L53,10 L52,10 L52,12 L48,12 L48,10 L49,9 L48,9 C47.7185,9.43283009 47.4324,9.15216473 47,9 C47.4324,8.45100073 47.7185,8.16434251 48,8 L49,8 L48,8 L48,5 L52,5 L52,8 L53,8 L53,6 L55,6 L55,0 L61,0 Z M61,110 L61,78 L77,97 L61,110 Z M55,111 L39,98 L55,79 L55,111 Z" id="path-19"></path>
        <ellipse id="path-21" cx="60.5" cy="16" rx="60.5" ry="16"></ellipse>
        <path d="M66,0 C34.2126,0 0,6.95957041 0,22 L0,57 C0,72.2931265 34.2126,84 66,84 C97.7856,84 132,72.2931265 132,57 L132,22 C132,6.95957041 97.7856,0 66,0 L66,0 Z M108.869565,29.7931034 C97.5463065,33.9521901 82.2884784,36 66.5043478,36 C49.7163727,36 34.4567255,33.9521901 23.1304348,29.7931034 C10.675163,26.2127954 8,21.8611994 8,21.5172414 C8,20.1408733 10.675163,15.7892773 23.1304348,12.2068966 C34.4567255,8.04677352 49.7163727,6 66.5043478,6 C82.2884784,6 97.5463065,8.04677352 108.869565,12.2068966 C121.325848,15.7872046 124,20.1388006 124,21.5172414 C124,21.8611994 121.327869,26.2127954 108.869565,29.7931034 L108.869565,29.7931034 Z" id="path-23"></path>
        <path id="path-25" d="M101,202 C156.78076,202 202,156.78076 202,101 C202,45.2192403 156.78076,0 101,0 C45.2192403,0 0,45.2192403 0,101 C0,156.78076 45.2192403,202 101,202 Z"></path>
        <path d="M138.995117,213 L83,213 L74,218 L63,213 L62,205 C41.6535963,195.120389 25.2183237,179.044317 15,159 L12,156 L5,154 L0,142 L5,135 C3.21716844,126.603846 2.08747343,117.758277 2,109 C2.08747343,96.5430286 4.08458782,84.8969902 8,74 L3,66 L8,55 L18,53 C28.2152452,35.3820785 43.5294219,21.2002495 62,12 L63,5 L74,0 L82,4 C91.055305,1.93084057 100.419435,0.660945427 110,1 C119.672645,0.660945427 128.976781,1.91484189 138,4 L146,0 L157,5 L158,12 C175.755433,20.697291 190.693045,34.202176 201,51 L211,53 L216,64 L211,71 C215.724719,82.9691493 218.067501,95.5391114 218,109 C218.067501,116.74536 217.174584,124.632709 215,132 L221,140 L216,151 L208,154 C208.17642,153.832698 206,159 206,159 C195.309616,178.724743 178.599169,195.147687 158,205 L157,213 L146,218 L138.995117,213 Z M138,205 C179.788015,192.504559 210,154.21372 210,109 C210,53.7755377 165.191022,9 110,9 C54.8084776,9 10,53.7755377 10,109 C10,154.521697 40.6245847,193.025082 82,205 L138,205 Z" id="path-27"></path>
        <path d="M30,152 L14,152 L7.96240234,116 L0,116 L0,52 L21,52 L21,24 L23,24 L23,52 L44,52 L44,116 L36.1208496,116 L30,152 Z M21.0959778,56 L6,56 L6,105 L22.0842285,99 L38,105 L38,56 L22.9104004,56 L22.9104004,70.0109863 L21.0959778,70.0109863 L21.0959778,56 Z M22.0015201,24 C28.6297767,24 34.0030403,18.627417 34.0030403,12 C34.0030403,5.372583 28.6297767,0 22.0015201,0 C15.3732636,0 10,5.372583 10,12 C10,18.627417 15.3732636,24 22.0015201,24 Z" id="path-29"></path>
        <path d="M61,6 L61,44 L63,44 L63,49 L61,49 L61,104 L63,104 L63,109 L111,167 L112,174 L113,174 L116,182 L116,184 L106,184 L106,175 L107,175 L106,169 L80,137 L63,151 L63,156 L59,156 L59,160 L60,160 L60,170 L56,170 L56,160 L57,160 L57,156 L53,156 L53,151 L36,137 L10,169 L9,175 L10,175 L10,184 L0,184 L0,182 L3,174 L4,174 L5,167 L54,109 L53,109 L53,107 L52,108 L52,110 L48,110 L48,107 L49,107 L48,107 C47.7185,107.025051 47.4324,106.738986 47,106 C47.4324,106.048255 47.7185,105.76219 48,106 L49,106 L48,105 L48,103 L52,103 L52,105 L53,106 L53,104 L55,104 L55,49 L53,49 L53,48 L52,48 L52,50 L48,50 L48,48 L49,47 L48,47 C47.7185,47.3824375 47.4324,47.1016685 47,47 C47.4324,46.4002458 47.7185,46.1134818 48,46 L49,46 L48,46 L48,43 L52,43 L52,45 L53,46 L53,44 L55,44 L55,6 L61,6 Z M61,147 L61,115 L77,134 L61,147 Z M55,148 L39,135 L55,116 L55,148 Z M43,0 L74,0 L74,6 L43,6 L43,0 Z" id="path-31"></path>
        <ellipse id="path-33" cx="43" cy="12" rx="43" ry="12"></ellipse>
        <path d="M48,0 C24.8819,0 0,5.029875 0,16 L0,82 C0,93.5390801 24.8819,102 48,102 C71.1168,102 96,93.5390801 96,82 L96,16 C96,5.029875 71.1168,0 48,0 L48,0 Z M78.8674699,21.8095238 C70.8441214,24.4979718 59.7952925,26 48.5060241,26 C36.2085314,26 25.1583943,24.4979718 17.1325301,21.8095238 C7.93720291,18.822784 6,15.631366 6,15.5238095 C6,14.3699925 7.93720291,11.178679 17.1325301,8.19047619 C25.1583943,5.50077422 36.2085314,4 48.5060241,4 C59.7952925,4 70.8441214,5.50077422 78.8674699,8.19047619 C88.0640046,11.1773205 90,14.3687385 90,15.5238095 C90,15.631366 88.0653128,18.822784 78.8674699,21.8095238 L78.8674699,21.8095238 Z" id="path-35"></path>
        <ellipse id="path-37" cx="52" cy="14" rx="52" ry="14"></ellipse>
        <path d="M58,0 C30.0657,0 0,6.11416518 0,20 L0,100 C0,113.714152 30.0657,124 58,124 C85.9328,124 116,113.714152 116,100 L116,20 C116,6.11416518 85.9328,0 58,0 L58,0 Z M95.8712871,26.8 C85.7390615,30.2248664 72.322642,32 58.5049505,32 C43.6817064,32 30.26377,30.2248664 20.1287129,26.8 C9.35234563,23.5179088 7,19.7460692 7,19.52 C7,18.2559748 9.35234563,14.4837264 20.1287129,11.2 C30.26377,7.77421384 43.6817064,6 58.5049505,6 C72.322642,6 85.7390615,7.77421384 95.8712871,11.2 C106.648868,14.4827044 109,18.2539308 109,19.52 C109,19.7460692 106.65089,23.5179088 95.8712871,26.8 L95.8712871,26.8 Z" id="path-39"></path>
        <ellipse id="path-41" cx="73" cy="19" rx="73" ry="19"></ellipse>
        <path d="M82,0 C42.5066,0 0,8.48137287 0,27.52 L0,139.565714 C0,157.732592 42.5066,172 82,172 C121.491,172 164,157.732592 164,139.565714 L164,27.52 C164,8.48137287 121.491,0 82,0 L82,0 Z M134.867133,36.8285714 C121.16142,41.3702497 102.220669,43.8285714 82.5034965,43.8285714 C61.786299,43.8285714 42.8431239,41.3702497 29.1328671,36.8285714 C13.3209175,32.0834788 10,26.861547 10,25.8285714 C10,24.7975977 13.3209175,19.574665 29.1328671,14.8285714 C42.8431239,10.2838903 61.786299,7.82857143 82.5034965,7.82857143 C102.220669,7.82857143 121.16142,10.2838903 134.867133,14.8285714 C150.681809,19.5726631 154,24.7955958 154,25.8285714 C154,26.861547 150.683829,32.0834788 134.867133,36.8285714 L134.867133,36.8285714 Z" id="path-43"></path>
        <rect id="path-45" x="0" y="0" width="12" height="20" rx="8"></rect>
        <rect id="path-47" x="0" y="0" width="12" height="20" rx="8"></rect>
        <path d="M61,0 L61,77 L63,77 L63,82 L61,82 L61,137 L63,137 L63,142 L111,200 L112,207 L113,207 L116,215 L116,217 L106,217 L106,208 L107,208 L106,202 L80,170 L63,184 L63,189 L59,189 L59,193 L60,193 L60,203 L56,203 L56,193 L57,193 L57,189 L53,189 L53,184 L36,170 L10,202 L9,208 L10,208 L10,217 L0,217 L0,215 L3,207 L4,207 L5,200 L54,142 L53,142 L53,140 L52,141 L52,143 L48,143 L48,140 L49,140 L48,140 C47.7186057,140.025051 47.4326045,139.738986 47,139 C47.4326045,139.048255 47.7186057,138.76219 48,139 L49,139 L48,138 L48,136 L52,136 L52,138 L53,139 L53,137 L55,137 L55,82 L53,82 L53,81 L52,81 L52,83 L48,83 L48,81 L49,80 L48,80 C47.7186057,80.3824375 47.4326045,80.1016685 47,80 C47.4326045,79.4002458 47.7186057,79.1134818 48,79 L49,79 L48,79 L48,76 L52,76 L52,78 L53,79 L53,77 L55,77 L55,0 L61,0 Z M61,180 L61,148 L77,167 L61,180 Z M55,181 L39,168 L55,149 L55,181 Z" id="path-49"></path>
        <path id="path-51" d="M98,0 C152.088023,0 196,13.8898324 196,31 C196,48.1090281 152.088023,62 98,62 C43.9123186,62 0,48.1090281 0,31 C0,13.8898324 43.9123186,0 98,0 L98,0 Z"></path>
        <ellipse id="path-53" cx="20.5" cy="6.96" rx="20.5" ry="6.96"></ellipse>
    </defs>
    <g id="Welcome" stroke="none" stroke-width="1" fill="none" fill-rule="evenodd">
        <g id="Drummar-1" transform="translate(-29.000000, -667.000000)">
            <g id="drums" transform="translate(29.000000, 667.000000)">
                <g id="c" transform="translate(0.000000, 32.000000)">
                    <g id="stend" transform="translate(29.000000, 58.000000)">
                        <mask id="mask-2" fill="white">
                            <use xlink:href="#path-1"></use>
                        </mask>
                        <use id="Mask" fill="#CFD8DC" xlink:href="#path-1"></use>
                        <rect id="Rectangle-15" fill="#B0BEC5" mask="url(#mask-2)" x="0" y="-1" width="58" height="226"></rect>
                    </g>
                    <g id="cimbal" transform="translate(1.000000, 1.000000)">
                        <g id="Oval" transform="translate(0.000000, 3.000000)">
                            <mask id="mask-4" fill="white">
                                <use xlink:href="#path-3"></use>
                            </mask>
                            <use id="Mask" fill="#FFD740" xlink:href="#path-3"></use>
                            <rect id="Rectangle-20" fill="#FBC02D" mask="url(#mask-4)" x="0" y="0" width="86" height="54"></rect>
                        </g>
                        <g id="Oval" transform="translate(68.000000, 0.000000)">
                            <g id="Rectangle-26" transform="translate(0.000000, 13.000000)">
                                <mask id="mask-6" fill="white">
                                    <use xlink:href="#path-5"></use>
                                </mask>
                                <use id="Mask" fill="#F9A825" xlink:href="#path-5"></use>
                                <rect fill="#FB8C00" mask="url(#mask-6)" x="0" y="0" width="18" height="12"></rect>
                            </g>
                            <rect id="Rectangle-21" fill="#CFD8DC" x="17" y="0" width="2" height="17" rx="8"></rect>
                        </g>
                    </g>
                </g>
                <g id="hh" transform="translate(186.000000, 0.000000)">
                    <g id="stand" transform="translate(9.000000, 85.000000)">
                        <mask id="mask-8" fill="white">
                            <use xlink:href="#path-7"></use>
                        </mask>
                        <use id="Mask" fill="#CFD8DC" xlink:href="#path-7"></use>
                        <rect id="Rectangle-15" fill="#B0BEC5" mask="url(#mask-8)" x="0" y="-1" width="58" height="208"></rect>
                    </g>
                    <g id="pedal" transform="translate(48.000000, 251.000000)">
                        <mask id="mask-10" fill="white">
                            <use xlink:href="#path-9"></use>
                        </mask>
                        <use id="Mask" fill="#CFD8DC" xlink:href="#path-9"></use>
                        <rect id="Rectangle-19" fill="#B0BEC5" mask="url(#mask-10)" x="-1" y="-1" width="20" height="78"></rect>
                    </g>
                    <g transform="translate(1.000000, 1.000000)" id="Oval">
                        <g transform="translate(0.000000, 39.000000)">
                            <mask id="mask-12" fill="white">
                                <use xlink:href="#path-11"></use>
                            </mask>
                            <use id="Mask" fill="#FFE082" xlink:href="#path-11"></use>
                            <rect id="Rectangle-20" fill="#FBC02D" mask="url(#mask-12)" x="0" y="-7" width="66" height="49"></rect>
                        </g>
                        <g transform="translate(0.000000, 37.000000)">
                            <mask id="mask-14" fill="white">
                                <use xlink:href="#path-13"></use>
                            </mask>
                            <use id="Mask" fill="#6D4C41" xlink:href="#path-13"></use>
                            <rect id="Rectangle-20" fill="#4E342E" mask="url(#mask-14)" x="0" y="-4" width="66" height="49"></rect>
                        </g>
                        <g transform="translate(0.000000, 35.000000)">
                            <mask id="mask-16" fill="white">
                                <use xlink:href="#path-15"></use>
                            </mask>
                            <use id="Mask" fill="#FFD740" xlink:href="#path-15"></use>
                            <rect id="Rectangle-20" fill="#FBC02D" mask="url(#mask-16)" x="0" y="0" width="66" height="42"></rect>
                        </g>
                        <g transform="translate(48.000000, 0.000000)">
                            <g id="Rectangle-26" transform="translate(0.000000, 44.000000)">
                                <mask id="mask-18" fill="white">
                                    <use xlink:href="#path-17"></use>
                                </mask>
                                <use id="Mask" fill="#F9A825" xlink:href="#path-17"></use>
                                <rect fill="#FB8C00" mask="url(#mask-18)" x="0" y="0" width="18" height="12"></rect>
                            </g>
                            <rect id="Rectangle-21" fill="#CFD8DC" x="17" y="0" width="2" height="48" rx="8"></rect>
                        </g>
                    </g>
                </g>
                <g id="sn" transform="translate(332.000000, 35.000000)">
                    <g id="stand" transform="translate(9.000000, 85.000000)">
                        <mask id="mask-20" fill="white">
                            <use xlink:href="#path-19"></use>
                        </mask>
                        <use id="Mask" fill="#CFD8DC" xlink:href="#path-19"></use>
                        <rect id="Rectangle-15" fill="#B0BEC5" mask="url(#mask-20)" x="-8" y="-1" width="66" height="148"></rect>
                    </g>
                    <g id="head" transform="translate(8.000000, 6.000000)">
                        <mask id="mask-22" fill="white">
                            <use xlink:href="#path-21"></use>
                        </mask>
                        <use id="Mask" fill="#FFFFFF" xlink:href="#path-21"></use>
                        <rect id="Rectangle-7" fill="#F5F5F5" mask="url(#mask-22)" x="0" y="0" width="59" height="32"></rect>
                    </g>
                    <g id="shell" transform="translate(1.000000, 1.000000)">
                        <mask id="mask-24" fill="white">
                            <use xlink:href="#path-23"></use>
                        </mask>
                        <use id="Mask" fill="#009688" xlink:href="#path-23"></use>
                        <rect id="Rectangle-1" fill="#00897B" mask="url(#mask-24)" x="0" y="0" width="66" height="84"></rect>
                    </g>
                </g>
                <g id="bd" transform="translate(478.000000, 34.000000)">
                    <g id="head" transform="translate(35.000000, 10.000000)">
                        <mask id="mask-26" fill="white">
                            <use xlink:href="#path-25"></use>
                        </mask>
                        <use id="Mask" fill="#FFFFFF" xlink:href="#path-25"></use>
                        <rect id="Rectangle-13" fill="#F5F5F5" mask="url(#mask-26)" x="1" y="-9" width="101" height="218"></rect>
                        <path d="M60,38.6995305 L63.0798122,38.6995305 C64.5882068,38.6995305 65.7528918,38.5620246 66.6103286,38.3239437 C67.4534217,38.0119928 68.2940484,37.5227276 69.0892019,36.8215962 C70.6940415,35.4121404 71.4929577,33.5702009 71.4929577,31.2629108 C71.4929577,29.0228447 70.7261265,27.1904987 69.1643192,25.7793427 C68.435224,25.1054943 67.5913888,24.6162292 66.685446,24.3521127 C65.8880064,24.0659392 64.8648281,23.9205495 63.6056338,23.9014085 C63.2441301,23.3554326 62.6390666,23 61.9530516,23 C60.8733741,23 60,23.8707339 60,24.9530516 C60,26.0189435 60.8733741,26.8896774 61.9530516,26.9061033 C62.6409499,26.8896774 63.2474405,26.5322972 63.6056338,26.0046948 C65.3385065,26.0440999 66.6719606,26.4933538 67.5868545,27.3568075 C68.6854986,28.351314 69.2309434,29.6688123 69.2394366,31.2629108 C69.2309434,32.9050461 68.6790817,34.2129511 67.5868545,35.2441315 C67.0363056,35.7031536 66.4331078,36.0581107 65.7840376,36.2957746 C65.0983523,36.4930196 64.2609341,36.5985473 63.2300469,36.5962441 L62.2535211,36.5962441 L62.2535211,29.3098592 L60,29.3098592 L60,37.6478873 L60,38.6995305 Z M73.8967136,29.3098592 L76.0751174,29.3098592 L76.0751174,30.2112676 C76.4406827,29.7632878 76.7909125,29.47833 77.1267606,29.3098592 C77.4085997,29.1645514 77.7779329,29.084507 78.1784038,29.084507 C78.7713267,29.084507 79.3635334,29.2702099 79.9812207,29.6103286 L79.0046948,31.6384977 C78.5898374,31.3257698 78.191849,31.1784882 77.8028169,31.1877934 C76.6317112,31.1784882 76.0458723,32.0685814 76.0751174,33.8169014 L76.0751174,38.6995305 L73.8967136,38.6995305 L73.8967136,29.3098592 Z M87.342723,34.7183099 C87.3104925,36.2895067 86.6993276,37.0657608 85.4647887,37.0469484 C84.2546309,37.0657608 83.6434659,36.2895067 83.6619718,34.7183099 L83.6619718,29.3098592 L81.4835681,29.3098592 L81.4835681,34.7934272 C81.4835681,35.6447568 81.5731629,36.2927045 81.7840376,36.7464789 C81.9379475,37.2165248 82.2547294,37.6559744 82.685446,38.0234742 C83.4322796,38.6824415 84.3570266,39 85.4647887,39 C86.6033316,39 87.5312785,38.6824415 88.2441315,38.0234742 C88.7024289,37.6559744 89.0128111,37.2165248 89.2206573,36.7464789 C89.3775957,36.1836423 89.4703904,35.5356947 89.4460094,34.7934272 L89.4460094,31.0375587 C89.9987059,30.6645167 90.3474178,30.0644709 90.3474178,29.3849765 C90.3474178,28.3053409 89.4764071,27.4319249 88.3943662,27.4319249 C87.3275147,27.4319249 86.456504,28.3053409 86.4413146,29.3849765 C86.456504,30.0545117 86.7951017,30.6469672 87.342723,30.9624413 L87.342723,34.7183099 Z M92.2253521,29.3098592 L94.4037559,29.3098592 L94.4037559,30.2112676 C94.8052648,29.7728932 95.1610005,29.47833 95.4553991,29.3098592 C95.7699265,29.1645514 96.1641201,29.084507 96.657277,29.084507 C97.6960498,29.084507 98.5325094,29.5455625 99.1361502,30.4366197 C99.8272784,29.5455625 100.747063,29.084507 101.915493,29.084507 C104.016035,29.084507 105.070423,30.3620149 105.070423,32.915493 L105.070423,38.6995305 L102.892019,38.6995305 L102.892019,33.5164319 C102.897529,32.6064892 102.788565,31.9725379 102.591549,31.6384977 C102.346292,31.2233116 101.977737,31.0344069 101.464789,31.0375587 C100.868851,31.0344069 100.434597,31.2585311 100.187793,31.713615 C99.8897684,32.1550413 99.7535633,32.8754404 99.7370892,33.8920188 L99.7370892,38.6995305 L97.5586854,38.6995305 L97.5586854,33.5164319 C97.5806696,31.8668681 97.0999458,31.0344069 96.1314554,31.0375587 C95.5295576,31.0344069 95.0856892,31.2617329 94.7793427,31.713615 C94.5280411,32.1710503 94.3886312,32.8882477 94.4037559,33.8920188 L94.4037559,38.6995305 L92.2253521,38.6995305 L92.2253521,29.3098592 Z M107.774648,29.3098592 L109.953052,29.3098592 L109.953052,30.2112676 C110.354561,29.7728932 110.710296,29.47833 111.004695,29.3098592 C111.319222,29.1645514 111.713416,29.084507 112.206573,29.084507 C113.245346,29.084507 114.081805,29.5455625 114.685446,30.4366197 C115.376574,29.5455625 116.296359,29.084507 117.464789,29.084507 C119.565331,29.084507 120.619718,30.3620149 120.619718,32.915493 L120.619718,38.6995305 L118.441315,38.6995305 L118.441315,33.5164319 C118.446825,32.6064892 118.337861,31.9725379 118.140845,31.6384977 C117.895588,31.2233116 117.527033,31.0344069 117.014085,31.0375587 C116.418147,31.0344069 115.983893,31.2585311 115.737089,31.713615 C115.439064,32.1550413 115.302859,32.8754404 115.286385,33.8920188 L115.286385,38.6995305 L113.107981,38.6995305 L113.107981,33.5164319 C113.129965,31.8668681 112.649242,31.0344069 111.680751,31.0375587 C111.078853,31.0344069 110.634985,31.2617329 110.328638,31.713615 C110.077337,32.1710503 109.937927,32.8882477 109.953052,33.8920188 L109.953052,38.6995305 L107.774648,38.6995305 L107.774648,29.3098592 Z M130.235349,29.3446803 L132.413146,29.3446803 L132.413146,38.7301907 L130.235349,38.7301907 L130.235349,37.7473138 C129.342383,38.5824421 128.381978,39 127.354104,39 C126.056414,39 124.983587,38.5310504 124.135591,37.5931371 C123.294019,36.6359515 122.873239,35.4410936 122.873239,34.0085274 C122.873239,32.6016574 123.294019,31.4292833 124.135591,30.49137 C124.977162,29.5534567 126.030717,29.084507 127.296287,29.084507 C128.388403,29.084507 129.36808,29.5341848 130.235349,30.4335537 L130.235349,29.3446803 Z M125.126761,33.9989859 C125.126761,34.8963926 125.36664,35.6271271 125.846407,36.1912113 C126.338967,36.7617055 126.959456,37.0469484 127.707892,37.0469484 C128.507503,37.0469484 129.153579,36.7713204 129.64614,36.2200563 C130.1387,35.6495621 130.384977,34.9252376 130.384977,34.047061 C130.384977,33.1688845 130.1387,32.44456 129.64614,31.8740657 C129.153579,31.3163916 128.5139,31.0375587 127.727083,31.0375587 C126.985044,31.0375587 126.364555,31.3195966 125.865597,31.8836808 C125.373037,32.454175 125.126761,33.1592697 125.126761,33.9989859 Z M135.117371,29.3098592 L137.295775,29.3098592 L137.295775,30.2112676 C137.66134,29.7632878 138.01157,29.47833 138.347418,29.3098592 C138.629257,29.1645514 138.99859,29.084507 139.399061,29.084507 C139.991984,29.084507 140.584191,29.2702099 141.201878,29.6103286 L140.225352,31.6384977 C139.810495,31.3257698 139.412506,31.1784882 139.023474,31.1877934 C137.852368,31.1784882 137.26653,32.0685814 137.295775,33.8169014 L137.295775,38.6995305 L135.117371,38.6995305 L135.117371,29.3098592 Z" id="logo" fill="#B0BEC5" mask="url(#mask-26)"></path>
                    </g>
                    <g id="legs" transform="translate(1.000000, 151.000000)">
                        <path d="M13.6290182,54.3154452 L43.4415235,2.67867143 L39.9774218,0.678671428 L10.1743879,52.2990405 C9.48301837,52.1042222 8.75368038,52 8,52 C3.581722,52 0,55.581722 0,60 C0,64.418278 3.581722,68 8,68 C12.418278,68 16,64.418278 16,60 C16,57.7767366 15.0930828,55.7652951 13.6290182,54.3154452 Z" id="Rectangle-11" fill="#B0BEC5"></path>
                        <path d="M242.187495,54.3154452 L272,2.67867143 L268.535898,0.678671428 L238.732864,52.2990405 C238.041495,52.1042222 237.312157,52 236.558477,52 C232.140199,52 228.558477,55.581722 228.558477,60 C228.558477,64.418278 232.140199,68 236.558477,68 C240.976755,68 244.558477,64.418278 244.558477,60 C244.558477,57.7767366 243.651559,55.7652951 242.187495,54.3154452 Z" id="Rectangle-11" fill="#CFD8DC" transform="translate(250.279238, 34.339336) scale(-1, 1) translate(-250.279238, -34.339336) "></path>
                    </g>
                    <g id="shell" transform="translate(26.000000, 1.000000)">
                        <mask id="mask-28" fill="white">
                            <use xlink:href="#path-27"></use>
                        </mask>
                        <use id="Mask" fill="#009688" xlink:href="#path-27"></use>
                        <rect id="Rectangle-1" fill="#00897B" mask="url(#mask-28)" x="0" y="0" width="111" height="218"></rect>
                    </g>
                    <g id="pedal" transform="translate(115.000000, 99.000000)">
                        <mask id="mask-30" fill="white">
                            <use xlink:href="#path-29"></use>
                        </mask>
                        <use id="Mask" fill="#CFD8DC" xlink:href="#path-29"></use>
                        <rect id="Rectangle-19" fill="#B0BEC5" mask="url(#mask-30)" x="-6" y="0" width="28" height="154"></rect>
                    </g>
                </g>
                <g id="tt-1-2" transform="translate(764.000000, 35.000000)">
                    <g id="stand" transform="translate(47.000000, 47.000000)">
                        <mask id="mask-32" fill="white">
                            <use xlink:href="#path-31"></use>
                        </mask>
                        <use id="Mask" fill="#CFD8DC" xlink:href="#path-31"></use>
                        <rect id="Rectangle-15" fill="#B0BEC5" mask="url(#mask-32)" x="0" y="-42" width="58" height="226"></rect>
                    </g>
                    <g id="tt-1" transform="translate(1.000000, 1.000000)">
                        <g id="Head" transform="translate(5.000000, 3.000000)">
                            <mask id="mask-34" fill="white">
                                <use xlink:href="#path-33"></use>
                            </mask>
                            <use id="Mask" fill="#FFFFFF" xlink:href="#path-33"></use>
                            <rect id="Rectangle-7" fill="#F5F5F5" mask="url(#mask-34)" x="0" y="0" width="42" height="24"></rect>
                        </g>
                        <g id="Shell">
                            <mask id="mask-36" fill="white">
                                <use xlink:href="#path-35"></use>
                            </mask>
                            <use id="Mask" fill="#009688" xlink:href="#path-35"></use>
                            <rect id="Rectangle-1" fill="#00897B" mask="url(#mask-36)" x="-1" y="-1" width="48" height="104"></rect>
                        </g>
                    </g>
                    <g id="tt-2" transform="translate(113.000000, 1.000000)">
                        <g id="Head" transform="translate(6.000000, 5.000000)">
                            <mask id="mask-38" fill="white">
                                <use xlink:href="#path-37"></use>
                            </mask>
                            <use id="Mask" fill="#FFFFFF" xlink:href="#path-37"></use>
                            <rect id="Rectangle-6" fill="#F5F5F5" mask="url(#mask-38)" x="0" y="0" width="52" height="28"></rect>
                        </g>
                        <g id="Shell">
                            <mask id="mask-40" fill="white">
                                <use xlink:href="#path-39"></use>
                            </mask>
                            <use id="Mask" fill="#009688" xlink:href="#path-39"></use>
                            <rect id="Rectangle-1" fill="#00897B" mask="url(#mask-40)" x="0" y="-1" width="58" height="126"></rect>
                        </g>
                    </g>
                </g>
                <g id="ft" transform="translate(1006.000000, 35.000000)">
                    <path d="M99,225.984741 C99,218.362345 95,210.622396 95,203 L95,78.9997529 C95,77.8953199 95.8877296,77 97,77 L97,77 C98.1045695,77 99,77.9029929 99,78.9997529 L99,203 C99,210.725911 103,218.25883 103,225.984741 L103,229.000178 C103,230.104649 102.11227,231 101,231 L101,231 C99.8954305,231 99,230.104543 99,228.998274 L99,225.984741 Z" id="Rectangle-40" fill="#90A4AE"></path>
                    <g id="Ft" transform="translate(1.000000, 1.000000)">
                        <g id="Head" transform="translate(9.000000, 7.000000)">
                            <mask id="mask-42" fill="white">
                                <use xlink:href="#path-41"></use>
                            </mask>
                            <use id="Mask" fill="#FFFFFF" xlink:href="#path-41"></use>
                            <rect id="Rectangle-6" fill="#F5F5F5" mask="url(#mask-42)" x="0" y="0" width="73" height="38"></rect>
                        </g>
                        <g id="Shell">
                            <mask id="mask-44" fill="white">
                                <use xlink:href="#path-43"></use>
                            </mask>
                            <use id="Mask" fill="#009688" xlink:href="#path-43"></use>
                            <rect id="Rectangle-1" fill="#00897B" mask="url(#mask-44)" x="0" y="0" width="82" height="172"></rect>
                        </g>
                    </g>
                    <path d="M153,251.984741 C153,244.362345 141,236.622396 141,229 L141,104.999753 C141,103.89532 141.88773,103 143,103 L143,103 C144.104569,103 145,103.902993 145,104.999753 L145,229 C145,236.725911 157,244.25883 157,251.984741 L157,255.000178 C157,256.104649 156.11227,257 155,257 L155,257 C153.895431,257 153,256.104543 153,254.998274 L153,251.984741 Z" id="Rectangle-40" fill="#CFD8DC"></path>
                    <path d="M21,251.984741 C21,244.362345 9,236.622396 9,229 L9,104.999753 C9,103.89532 9.88772964,103 11,103 L11,103 C12.1045695,103 13,103.902993 13,104.999753 L13,229 C13,236.725911 25,244.25883 25,251.984741 L25,255.000178 C25,256.104649 24.1122704,257 23,257 L23,257 C21.8954305,257 21,256.104543 21,254.998274 L21,251.984741 Z" id="Rectangle-40" fill="#B0BEC5" transform="translate(17.000000, 180.000000) scale(-1, 1) translate(-17.000000, -180.000000) "></path>
                    <g id="Rectangle" transform="translate(17.000000, 122.000000)">
                        <mask id="mask-46" fill="white">
                            <use xlink:href="#path-45"></use>
                        </mask>
                        <use id="Mask" fill="#00796B" xlink:href="#path-45"></use>
                        <rect id="Rectangle-45" fill="#00695C" mask="url(#mask-46)" x="0" y="0" width="6" height="20"></rect>
                    </g>
                    <g id="Rectangle" transform="translate(137.000000, 123.000000)">
                        <mask id="mask-48" fill="white">
                            <use xlink:href="#path-47"></use>
                        </mask>
                        <use id="Mask" fill="#00897B" xlink:href="#path-47"></use>
                        <rect id="Rectangle-45" fill="#00796B" mask="url(#mask-48)" x="0" y="0" width="6" height="20"></rect>
                    </g>
                </g>
                <g id="r" transform="translate(1184.000000, 32.000000)">
                    <g id="stand" transform="translate(41.000000, 66.000000)">
                        <mask id="mask-50" fill="white">
                            <use xlink:href="#path-49"></use>
                        </mask>
                        <use id="Mask" fill="#CFD8DC" xlink:href="#path-49"></use>
                        <rect id="Rectangle-15" fill="#B0BEC5" mask="url(#mask-50)" x="-1" y="-1" width="59" height="219"></rect>
                    </g>
                    <g id="cimbal" transform="translate(1.000000, 1.000000)">
                        <g id="Oval" transform="translate(0.000000, 3.000000)">
                            <mask id="mask-52" fill="white">
                                <use xlink:href="#path-51"></use>
                            </mask>
                            <use id="Mask" fill="#FFD740" xlink:href="#path-51"></use>
                            <rect id="Rectangle-20" fill="#FBC02D" mask="url(#mask-52)" x="0" y="0" width="98" height="62"></rect>
                        </g>
                        <g id="Oval" transform="translate(77.000000, 0.000000)">
                            <g id="Rectangle-26" transform="translate(0.000000, 15.080000)">
                                <mask id="mask-54" fill="white">
                                    <use xlink:href="#path-53"></use>
                                </mask>
                                <use id="Mask" fill="#F9A825" xlink:href="#path-53"></use>
                                <rect fill="#FB8C00" mask="url(#mask-54)" x="0" y="0" width="20.5" height="13.92"></rect>
                            </g>
                            <rect id="Rectangle-21" fill="#CFD8DC" x="19.3611111" y="0" width="2.27777778" height="19.72" rx="8"></rect>
                        </g>
                    </g>
                </g>
            </g>
        </g>
    </g>
</svg>