<?xml version="1.0" encoding="UTF-8" standalone="no"?>
<svg width="134px" height="328px" viewBox="0 0 134 328" version="1.1" xmlns="http://www.w3.org/2000/svg" xmlns:xlink="http://www.w3.org/1999/xlink" xmlns:sketch="http://www.bohemiancoding.com/sketch/ns">
    <!-- Generator: sketchtool 3.5.2 (25235) - http://www.bohemiancoding.com/sketch -->
    <title>hh</title>
    <desc>Created with sketchtool.</desc>
    <defs>
        <path d="M61,0 L61,67 L63,67 L63,72 L61,72 L61,127 L63,127 L63,132 L111,190 L112,197 L113,197 L116,205 L116,207 L106,207 L106,198 L107,198 L106,192 L80,160 L63,174 L53,174 L36,160 L10,192 L9,198 L10,198 L10,207 L0,207 L0,205 L3,197 L4,197 L5,190 L54,132 L53,132 L53,130 L52,131 L52,133 L48,133 L48,130 L49,130 L48,130 C47.7185,130.025051 47.4324,129.738986 47,129 C47.4324,129.048255 47.7185,128.76219 48,129 L49,129 L48,128 L48,126 L52,126 L52,128 L53,129 L53,127 L55,127 L55,72 L53,72 L53,71 L52,71 L52,73 L48,73 L48,71 L49,70 L48,70 C47.7185,70.3824375 47.4324,70.1016685 47,70 C47.4324,69.4002458 47.7185,69.1134818 48,69 L49,69 L48,69 L48,66 L52,66 L52,68 L53,69 L53,67 L55,67 L55,0 L61,0 Z M61,170 L61,138 L77,157 L61,170 Z M55,171 L39,158 L55,139 L55,171 Z" id="path-1"></path>
        <path d="M27,76 L11,76 L3.96240234,41 L0,41 L4,0 L33,0 L37,41 L33.1208496,41 L27,76 Z M18.0959778,8 L6,8 L3,30 L19.0842285,24 L34,30 L31,8 L19.9104004,8 L19.9104004,24.0109863 L18.0959778,24.0109863 L18.0959778,8 Z" id="path-3"></path>
        <path id="path-5" d="M66,0 C102.426,0 132,9.41 132,21 C132,32.59 102.426,42 66,42 C29.5736,42 0,32.59 0,21 C0,9.41 29.5736,0 66,0 L66,0 Z"></path>
        <path id="path-7" d="M66,0 C102.426,0 132,9.41 132,21 C132,32.59 102.426,42 66,42 C29.5736,42 0,32.59 0,21 C0,9.41 29.5736,0 66,0 L66,0 Z"></path>
        <path id="path-9" d="M66,0 C102.426,0 132,9.41 132,21 C132,32.59 102.426,42 66,42 C29.5736,42 0,32.59 0,21 C0,9.41 29.5736,0 66,0 L66,0 Z"></path>
        <ellipse id="path-11" cx="18" cy="6" rx="18" ry="6"></ellipse>
    </defs>
    <g id="Welcome" stroke="none" stroke-width="1" fill="none" fill-rule="evenodd" sketch:type="MSPage">
        <g id="Drummar-1" sketch:type="MSArtboardGroup" transform="translate(-215.000000, -667.000000)">
            <g id="drums" sketch:type="MSLayerGroup" transform="translate(29.000000, 667.000000)">
                <g id="hh" transform="translate(186.000000, 0.000000)">
                    <g id="stand" transform="translate(9.000000, 85.000000)">
                        <mask id="mask-2" sketch:name="Mask" fill="white">
                            <use xlink:href="#path-1"></use>
                        </mask>
                        <use id="Mask" fill="#CFD8DC" sketch:type="MSShapeGroup" xlink:href="#path-1"></use>
                        <rect id="Rectangle-15" fill="#B0BEC5" sketch:type="MSShapeGroup" mask="url(#mask-2)" x="0" y="-1" width="58" height="208"></rect>
                    </g>
                    <g id="pedal" transform="translate(48.000000, 251.000000)">
                        <mask id="mask-4" sketch:name="Mask" fill="white">
                            <use xlink:href="#path-3"></use>
                        </mask>
                        <use id="Mask" fill="#CFD8DC" sketch:type="MSShapeGroup" xlink:href="#path-3"></use>
                        <rect id="Rectangle-19" fill="#B0BEC5" sketch:type="MSShapeGroup" mask="url(#mask-4)" x="-1" y="-1" width="20" height="78"></rect>
                    </g>
                    <g transform="translate(1.000000, 1.000000)" id="Oval">
                        <g transform="translate(0.000000, 39.000000)">
                            <mask id="mask-6" sketch:name="Mask" fill="white">
                                <use xlink:href="#path-5"></use>
                            </mask>
                            <use id="Mask" fill="#FFE082" sketch:type="MSShapeGroup" xlink:href="#path-5"></use>
                            <rect id="Rectangle-20" fill="#FBC02D" sketch:type="MSShapeGroup" mask="url(#mask-6)" x="0" y="-7" width="66" height="49"></rect>
                        </g>
                        <g transform="translate(0.000000, 37.000000)">
                            <mask id="mask-8" sketch:name="Mask" fill="white">
                                <use xlink:href="#path-7"></use>
                            </mask>
                            <use id="Mask" fill="#6D4C41" sketch:type="MSShapeGroup" xlink:href="#path-7"></use>
                            <rect id="Rectangle-20" fill="#4E342E" sketch:type="MSShapeGroup" mask="url(#mask-8)" x="0" y="-4" width="66" height="49"></rect>
                        </g>
                        <g transform="translate(0.000000, 35.000000)">
                            <mask id="mask-10" sketch:name="Mask" fill="white">
                                <use xlink:href="#path-9"></use>
                            </mask>
                            <use id="Mask" fill="#FFD740" sketch:type="MSShapeGroup" xlink:href="#path-9"></use>
                            <rect id="Rectangle-20" fill="#FBC02D" sketch:type="MSShapeGroup" mask="url(#mask-10)" x="0" y="0" width="66" height="42"></rect>
                        </g>
                        <g transform="translate(48.000000, 0.000000)">
                            <g id="Rectangle-26" transform="translate(0.000000, 44.000000)">
                                <mask id="mask-12" sketch:name="Mask" fill="white">
                                    <use xlink:href="#path-11"></use>
                                </mask>
                                <use id="Mask" fill="#F9A825" sketch:type="MSShapeGroup" xlink:href="#path-11"></use>
                                <rect fill="#FB8C00" sketch:type="MSShapeGroup" mask="url(#mask-12)" x="0" y="0" width="18" height="12"></rect>
                            </g>
                            <rect id="Rectangle-21" fill="#CFD8DC" sketch:type="MSShapeGroup" x="17" y="0" width="2" height="48" rx="8"></rect>
                        </g>
                    </g>
                </g>
            </g>
        </g>
    </g>
</svg>