<?xml version="1.0" encoding="UTF-8" standalone="no"?>
<svg width="88px" height="88px" viewBox="0 0 88 88" version="1.1" xmlns="http://www.w3.org/2000/svg" xmlns:xlink="http://www.w3.org/1999/xlink" xmlns:sketch="http://www.bohemiancoding.com/sketch/ns">
    <!-- Generator: sketchtool 3.5.2 (25235) - http://www.bohemiancoding.com/sketch -->
    <title>ic_plus-normal</title>
    <desc>Created with sketchtool.</desc>
    <defs></defs>
    <g id="Welcome" stroke="none" stroke-width="1" fill="none" fill-rule="evenodd" sketch:type="MSPage">
        <g id="Drummar-1" sketch:type="MSArtboardGroup" transform="translate(-56.000000, -48.000000)">
            <g id="controlls" sketch:type="MSLayerGroup" transform="translate(56.000000, 32.000000)">
                <g id="tempo" transform="translate(0.000000, 16.000000)" sketch:type="MSShapeGroup">
                    <g id="ic_plus-normal">
                        <path d="M0,0 L88,0 L88,88 L0,88 L0,0 Z" id="Shape"></path>
                        <path d="M40,28 L40,40 L28,40 L28,48 L40,48 L40,60 L48,60 L48,48 L60,48 L60,40 L48,40 L48,28 L40,28 Z M44,8 C24.128,8 8,24.128 8,44 C8,63.872 24.128,80 44,80 C63.872,80 80,63.872 80,44 C80,24.128 63.872,8 44,8 L44,8 Z M16,44 C16,28.565 28.565,16 44,16 C59.435,16 72,28.565 72,44 C72,59.435 59.435,72 44,72 C28.565,72 16,59.435 16,44 Z" id="Shape" fill="#FFFFFF"></path>
                    </g>
                </g>
            </g>
        </g>
    </g>
</svg>