<?xml version="1.0" encoding="UTF-8" standalone="no"?>
<svg width="120px" height="120px" viewBox="0 0 120 120" version="1.1" xmlns="http://www.w3.org/2000/svg" xmlns:xlink="http://www.w3.org/1999/xlink">
    <!-- Generator: sketchtool 3.8.2 (29753) - http://www.bohemiancoding.com/sketch -->
    <title>EBB3E75B-1432-4301-82F7-F3EB486DD6A3</title>
    <desc>Created with sketchtool.</desc>
    <defs></defs>
    <g id="Welcome" stroke="none" stroke-width="1" fill="none" fill-rule="evenodd">
        <g id="Drummar-3" transform="translate(-660.000000, -32.000000)">
            <g id="controlls" transform="translate(56.000000, 32.000000)">
                <g id="ic_pause_circle_outline_black_48px" transform="translate(604.000000, 0.000000)">
                    <polygon id="Shape" points="0 0 120 0 120 120 0 120"></polygon>
                    <path d="M45,80 L55,80 L55,40 L45,40 L45,80 L45,80 Z M60,10 C32.4,10 10,32.4 10,60 C10,87.6 32.4,110 60,110 C87.6,110 110,87.6 110,60 C110,32.4 87.6,10 60,10 L60,10 Z M60,100 C37.95,100 20,82.05 20,60 C20,37.95 37.95,20 60,20 C82.05,20 100,37.95 100,60 C100,82.05 82.05,100 60,100 L60,100 Z M65,80 L75,80 L75,40 L65,40 L65,80 L65,80 Z" id="Shape" fill="#FFFFFF"></path>
                </g>
            </g>
        </g>
    </g>
</svg>