<?xml version="1.0" encoding="UTF-8" standalone="no"?>
<svg width="120px" height="120px" viewBox="0 0 120 120" version="1.1" xmlns="http://www.w3.org/2000/svg" xmlns:xlink="http://www.w3.org/1999/xlink" xmlns:sketch="http://www.bohemiancoding.com/sketch/ns">
    <!-- Generator: sketchtool 3.5.2 (25235) - http://www.bohemiancoding.com/sketch -->
    <title>ic_play</title>
    <desc>Created with sketchtool.</desc>
    <defs></defs>
    <g id="Welcome" stroke="none" stroke-width="1" fill="none" fill-rule="evenodd" sketch:type="MSPage">
        <g id="Drummar-1" sketch:type="MSArtboardGroup" transform="translate(-660.000000, -32.000000)">
            <g id="controlls" sketch:type="MSLayerGroup" transform="translate(56.000000, 32.000000)">
                <g id="ic_play" transform="translate(604.000000, 0.000000)" sketch:type="MSShapeGroup">
                    <path d="M0,0 L120,0 L120,120 L0,120 L0,0 Z" id="Shape"></path>
                    <path d="M50,82.5 L80,60 L50,37.5 L50,82.5 L50,82.5 Z M60,10 C32.4,10 10,32.4 10,60 C10,87.6 32.4,110 60,110 C87.6,110 110,87.6 110,60 C110,32.4 87.6,10 60,10 L60,10 Z M60,100 C37.95,100 20,82.05 20,60 C20,37.95 37.95,20 60,20 C82.05,20 100,37.95 100,60 C100,82.05 82.05,100 60,100 L60,100 Z" id="Shape" fill="#FFFFFF"></path>
                </g>
            </g>
        </g>
    </g>
</svg>