<?xml version="1.0" encoding="UTF-8" standalone="no"?>
<svg width="36px" height="36px" viewBox="0 0 36 36" version="1.1" xmlns="http://www.w3.org/2000/svg" xmlns:xlink="http://www.w3.org/1999/xlink" xmlns:sketch="http://www.bohemiancoding.com/sketch/ns">
    <!-- Generator: sketchtool 3.5.2 (25235) - http://www.bohemiancoding.com/sketch -->
    <title>ic_repeat_black_36px</title>
    <desc>Created with sketchtool.</desc>
    <defs></defs>
    <g id="Welcome" stroke="none" stroke-width="1" fill="none" fill-rule="evenodd" sketch:type="MSPage">
        <g id="Drummar-3" sketch:type="MSArtboardGroup" transform="translate(-1334.000000, -160.000000)">
            <g id="controlls" sketch:type="MSLayerGroup" transform="translate(56.000000, 32.000000)">
                <g id="parts" transform="translate(1264.000000, 16.000000)" sketch:type="MSShapeGroup">
                    <g id="repeat" transform="translate(0.000000, 86.000000)">
                        <g id="ic_repeat_black_36px" transform="translate(14.000000, 26.000000)">
                            <path d="M0,0 L36,0 L36,36 L0,36 L0,0 Z" id="Shape"></path>
                            <path d="M12,26.2222222 L12,21.5555556 L6,28 L12,34 L12,30 L30,30 L30,20 L26,20 L26,26.2222223 L12,26.2222222 Z M24,9.77777778 L24,14.4444444 L30,8 L24,2 L24,6 L6,6 L6,16 L10,16 L10,9.77777767 L24,9.77777778 Z" id="Shape" fill="#FFEA00"></path>
                        </g>
                    </g>
                </g>
            </g>
        </g>
    </g>
</svg>