<?xml version="1.0" encoding="UTF-8" standalone="no"?>
<svg width="91px" height="94px" viewBox="0 0 66 94" version="1.1" xmlns="http://www.w3.org/2000/svg" xmlns:xlink="http://www.w3.org/1999/xlink" xmlns:sketch="http://www.bohemiancoding.com/sketch/ns">
    <!-- Generator: sketchtool 3.5.2 (25235) - http://www.bohemiancoding.com/sketch -->
    <title>left-foot</title>
    <desc>Created with sketchtool.</desc>
    <defs></defs>
    <g id="Welcome" stroke="none" stroke-width="1" fill="none" fill-rule="evenodd" sketch:type="MSPage">
        <g id="Drummar-1" sketch:type="MSArtboardGroup" transform="translate(-532.000000, -41.000000)" fill="#FFA726">
            <g id="controlls" sketch:type="MSLayerGroup" transform="translate(56.000000, 32.000000)">
                <g id="applicatura" transform="translate(341.000000, 8.000000)" sketch:type="MSShapeGroup">
                    <g id="left-foot" transform="translate(126.000000, 0.000000)">
                        <path d="M59.6794919,41.5692194 C59.6249025,41.3177967 59.6036641,40.5505134 59.6794919,39.5692194 C58.6865949,34.8507876 55.9015388,31.0275663 51.6794919,27.5692194 C47.9555421,24.6470597 43.235631,22.3246837 37.6794919,20.5692194 C35.2491485,20.3980043 32.3864393,20.3115017 29.6794919,21.5692194 C25.2581225,23.1320417 22.8837315,26.6586127 21.6794919,31.5692194 C21.2307836,35.2088531 21.7818216,39.2231621 23.6794919,42.5692194 C25.1872724,44.9424366 27.8349424,46.7824505 30.6794919,45.5692194 C34.5527601,44.0013335 38.382316,44.3854639 41.6794919,46.5692194 C43.9139336,48.5028919 45.1865807,50.5064625 45.6794919,53.5692194 C45.4358005,55.6231508 44.492847,57.8753147 43.6794919,59.5692194 C40.7640077,64.4618962 37.2523647,68.2370605 33.6794919,71.5692194 C31.1758483,75.016196 29.3334138,78.4047863 28.6794919,82.5692194 C27.347288,86.7092028 27.724934,91.1573283 30.6794919,95.5692194 C31.8455229,96.9732055 33.3735289,98.6978825 35.6794919,99.5692194 C41.8325667,100.578948 46.9716051,97.8719533 49.6794919,91.5692194 C50.5043206,88.0399751 51.0045854,84.2472171 51.6794919,80.5692194 C51.5934543,75.0111459 51.5788529,69.536555 52.6794919,64.5692194 C53.9525802,60.8369305 55.3564742,57.5203443 56.6794919,54.5692194 C58.2102234,50.280513 59.5742953,46.34 59.6794919,41.5692194 L59.6794919,41.5692194 Z M22.6794919,11.5692194 C22.7862095,12.4600511 22.9113436,13.3994592 22.6794919,14.5692194 C23.5439206,15.8678461 24.4461691,17.054829 25.6794919,17.5692194 C27.9139142,17.8244395 29.4773511,17.4008257 30.6794919,15.5692194 C32.5590056,14.0037531 33.5502128,11.6677156 33.6794919,8.56921938 C33.7554262,7.08974139 33.3364488,5.1357085 31.6794919,4.56921938 C29.5733805,3.28265799 27.5100647,3.30442281 25.6794919,4.56921938 C23.3928059,6.40398947 22.9052596,8.89110046 22.6794919,11.5692194 L22.6794919,11.5692194 Z M43.6794919,10.5692194 C43.6143766,10.5952197 43.6211126,9.95600687 43.6794919,9.56921938 C42.7335056,7.14321688 41.0482785,5.42481759 38.6794919,7.56921938 C36.2494317,8.96899633 35.0946271,12.1173889 35.6794919,14.5692194 C36.4950392,15.5214033 37.4969868,16.2814584 38.6794919,16.5692194 C40.3814074,16.7355276 41.3545107,16.2470904 42.6794919,15.5692194 C43.4694647,14.1705989 43.5005542,12.6913501 43.6794919,10.5692194 L43.6794919,10.5692194 Z M51.6794919,14.5692194 C51.5953451,12.214202 49.8148988,10.9647079 47.6794919,11.5692194 C45.2838386,12.5959197 43.9945921,16.0286107 44.6794919,17.5692194 C45.8068415,19.2585034 47.0422674,19.8047785 48.6794919,19.5692194 C50.4682591,19.0565702 51.7464969,17.1824158 51.6794919,14.5692194 L51.6794919,14.5692194 Z M56.6794919,18.5692194 C56.6868498,17.4744679 55.8274909,16.5890773 54.6794919,16.5692194 C53.2473945,16.5470982 51.7168403,18.0465476 51.6794919,19.5692194 C51.6505286,20.5966994 52.6250073,21.5876506 53.6794919,21.5692194 C55.1990447,21.5450587 56.6710292,20.092491 56.6794919,18.5692194 L56.6794919,18.5692194 Z M59.6794919,27.5692194 C60.563105,27.5249656 61.7353148,25.9886143 61.6794919,24.5692194 C61.6301561,23.3370569 60.9017041,22.5466634 59.6794919,22.5692194 C58.736673,22.5949127 57.625143,24.1314298 57.6794919,25.5692194 C57.7273561,26.7722098 58.4329795,27.6017334 59.6794919,27.5692194 L59.6794919,27.5692194 Z" id="Shape" transform="translate(41.679492, 51.569219) scale(-1, 1) rotate(-330.000000) translate(-41.679492, -51.569219) "></path>
                    </g>
                </g>
            </g>
        </g>
    </g>
</svg>