<?xml version="1.0" encoding="UTF-8" standalone="no"?>
<svg width="91px" height="82px" viewBox="0 0 91 82" version="1.1" xmlns="http://www.w3.org/2000/svg" xmlns:xlink="http://www.w3.org/1999/xlink" xmlns:sketch="http://www.bohemiancoding.com/sketch/ns">
    <!-- Generator: sketchtool 3.5.2 (25235) - http://www.bohemiancoding.com/sketch -->
    <title>left-hand</title>
    <desc>Created with sketchtool.</desc>
    <defs></defs>
    <g id="Welcome" stroke="none" stroke-width="1" fill="none" fill-rule="evenodd" sketch:type="MSPage">
        <g id="Drummar-1" sketch:type="MSArtboardGroup" transform="translate(-397.000000, -51.000000)" fill="#00C853">
            <g id="controlls" sketch:type="MSLayerGroup" transform="translate(56.000000, 32.000000)">
                <g id="applicatura" transform="translate(341.000000, 8.000000)" sketch:type="MSShapeGroup">
                    <g id="left-hand" transform="translate(0.000000, 11.000000)">
                        <path d="M83.5099166,21.6 C81.9099166,19.9 77.5099166,16.5 75.5099166,15.3 C75.2099166,15.1 74.7099166,15.1 74.4099166,15.4 C72.9099166,17 71.2099166,18.7 70.7099166,19.4 C70.4099166,19.7 70.0099166,20.3 69.5099166,20.9 C69.3099166,21.1 69.5099166,21.4 69.7099166,21.4 C70.6099166,21.5 71.5099166,21.8 72.4099166,22.1 C74.5099166,22.9 80.0099166,28 82.2099166,28.8 C84.4099166,29.7 86.1099166,28.9 86.8099166,27 C87.4099166,25.7 85.2099166,23.3 83.5099166,21.6 Z M70.7099166,23.3 C70.3099166,23.1 69.1099166,22.8 68.5099166,22.6 C68.3099166,22.5 68.1099166,22.6 68.0099166,22.8 C66.9099166,24.1 65.7099166,25.7 64.8099166,26.9 C64.7099166,27.1 64.7099166,27.3 64.9099166,27.4 C66.6099166,28.2 68.4099166,29.2 69.3099166,29.7 C71.9099166,31 77.3099166,32.9 78.3099166,33 C79.4099166,33.1 80.5099166,33.3 81.2099166,31.4 C81.8099166,29.6 71.2099166,23.6 70.7099166,23.3 Z M64.1099166,29 C63.9099166,28.9 63.6099166,29 63.5099166,29.2 C63.4099166,29.3 63.3099166,29.4 63.3099166,29.5 C62.4099166,30.8 61.5099166,32.1 60.7099166,33.6 C60.6099166,33.8 60.7099166,34.2 60.9099166,34.3 C61.9099166,34.8 63.1099166,35.2 64.2099166,35.3 C68.3099166,36 71.1099166,35.1 71.5099166,33.5 C71.7099166,32.5 67.4099166,30.7 64.1099166,29 Z M89.8099166,1.2 C89.8099166,1.2 89.7099166,1 88.7099166,1 C85.2099166,1 76.0099166,3.5 74.3099166,4 C72.1099166,4.6 70.2099166,5.3 66.7099166,8.1 C65.0099166,9.4 62.4099166,11.6 61.0099166,12.7 C60.6099166,13.2 59.3099166,14.4 56.8099166,15.8 C56.7099166,15.8 56.6099166,15.9 56.6099166,15.9 C56.4099166,15.9 56.2099166,15.8 56.1099166,15.6 C56.0099166,15.4 56.1099166,15.1 56.3099166,14.9 C57.0099166,14.5 57.7099166,14.1 58.3099166,13.6 C57.1099166,13.5 54.9099166,13.2 51.7099166,12.8 C51.3099166,12.7 50.9099166,12.7 50.5099166,12.7 C46.0099166,12.7 42.8099166,16 41.0099166,18.7 C39.9099166,20.4 35.2099166,23.4 30.2099166,26.6 C26.3099166,29.2 22.2099166,31.8 20.5099166,33.4 C17.6099166,36.2 7.70991655,42.4 3.50991655,45 C2.30991655,45.7 1.60991655,46.9 1.60991655,48.3 C1.60991655,48.4 1.50991655,58.5 1.60991655,61.9 C1.80991655,69.3 3.30991655,80.3 5.70991655,80.3 C6.20991655,80.3 6.80991655,79.8 7.40991655,78.9 C9.80991655,75.3 14.1099166,70.8 18.9099166,66.8 C24.1099166,62.6 28.9099166,59.8 32.2099166,59.1 C34.6099166,58.6 37.4099166,58.2 40.1099166,57.8 C45.2099166,57.1 50.0099166,56.4 52.2099166,55.1 C54.8099166,53.5 61.8099166,51.6 65.6099166,50.7 C66.8099166,50.4 67.7099166,50.1 68.1099166,50 C68.7099166,49.8 69.9099166,49.7 71.2099166,49.6 C73.0099166,49.5 75.3099166,49.3 76.4099166,48.8 C78.2099166,47.9 82.3099166,46.3 84.4099166,45.7 C85.3099166,45.4 85.9099166,44.7 86.0099166,43.8 C86.1099166,42.6 85.3099166,41.5 83.7099166,40.7 C81.8099166,39.7 78.4099166,39.1 75.2099166,39.1 C72.8099166,39.1 70.6099166,39.4 68.5099166,40 C66.7099166,40.5 65.2099166,40.8 63.8099166,40.8 C61.4099166,40.8 60.0099166,39.9 58.7099166,39.1 C58.6099166,39 58.5099166,38.9 58.3099166,38.9 C57.5099166,38.4 57.5099166,37.3 58.3099166,35.5 C58.3099166,35.4 58.3099166,35.3 58.4099166,35.3 C59.1099166,33.7 61.3099166,30 63.0099166,27.6 C64.4099166,25.6 68.1099166,20.9 69.3099166,19.5 C70.2099166,18.4 73.5099166,15 75.4099166,13.2 C75.7099166,12.9 75.9099166,12.7 76.1099166,12.5 L76.5099166,12.1 C76.5099166,12.1 76.6099166,12 76.7099166,12 C78.0099166,11 81.5099166,9.1 84.6099166,7.5 C86.6099166,6.5 88.5099166,5.5 88.9099166,5.1 C90.0099166,3.9 90.2099166,2.3 89.8099166,1.2 Z" id="Shape"></path>
                    </g>
                </g>
            </g>
        </g>
    </g>
</svg>