<?xml version="1.0" encoding="UTF-8" standalone="no"?>
<svg width="198px" height="284px" viewBox="0 0 198 284" version="1.1" xmlns="http://www.w3.org/2000/svg" xmlns:xlink="http://www.w3.org/1999/xlink" xmlns:sketch="http://www.bohemiancoding.com/sketch/ns">
    <!-- Generator: sketchtool 3.5.2 (25235) - http://www.bohemiancoding.com/sketch -->
    <title>r</title>
    <desc>Created with sketchtool.</desc>
    <defs>
        <path d="M61,0 L61,77 L63,77 L63,82 L61,82 L61,137 L63,137 L63,142 L111,200 L112,207 L113,207 L116,215 L116,217 L106,217 L106,208 L107,208 L106,202 L80,170 L63,184 L63,189 L59,189 L59,193 L60,193 L60,203 L56,203 L56,193 L57,193 L57,189 L53,189 L53,184 L36,170 L10,202 L9,208 L10,208 L10,217 L0,217 L0,215 L3,207 L4,207 L5,200 L54,142 L53,142 L53,140 L52,141 L52,143 L48,143 L48,140 L49,140 L48,140 C47.7186057,140.025051 47.4326045,139.738986 47,139 C47.4326045,139.048255 47.7186057,138.76219 48,139 L49,139 L48,138 L48,136 L52,136 L52,138 L53,139 L53,137 L55,137 L55,82 L53,82 L53,81 L52,81 L52,83 L48,83 L48,81 L49,80 L48,80 C47.7186057,80.3824375 47.4326045,80.1016685 47,80 C47.4326045,79.4002458 47.7186057,79.1134818 48,79 L49,79 L48,79 L48,76 L52,76 L52,78 L53,79 L53,77 L55,77 L55,0 L61,0 Z M61,180 L61,148 L77,167 L61,180 Z M55,181 L39,168 L55,149 L55,181 Z" id="path-1"></path>
        <path id="path-3" d="M98,0 C152.088023,0 196,13.8898324 196,31 C196,48.1090281 152.088023,62 98,62 C43.9123186,62 0,48.1090281 0,31 C0,13.8898324 43.9123186,0 98,0 L98,0 Z"></path>
        <ellipse id="path-5" cx="20.5" cy="6.96" rx="20.5" ry="6.96"></ellipse>
    </defs>
    <g id="Welcome" stroke="none" stroke-width="1" fill="none" fill-rule="evenodd" sketch:type="MSPage">
        <g id="Drummar-1" sketch:type="MSArtboardGroup" transform="translate(-1213.000000, -699.000000)">
            <g id="drums" sketch:type="MSLayerGroup" transform="translate(29.000000, 667.000000)">
                <g id="r" transform="translate(1184.000000, 32.000000)">
                    <g id="stand" transform="translate(41.000000, 66.000000)">
                        <mask id="mask-2" sketch:name="Mask" fill="white">
                            <use xlink:href="#path-1"></use>
                        </mask>
                        <use id="Mask" fill="#CFD8DC" sketch:type="MSShapeGroup" xlink:href="#path-1"></use>
                        <rect id="Rectangle-15" fill="#B0BEC5" sketch:type="MSShapeGroup" mask="url(#mask-2)" x="-1" y="-1" width="59" height="219"></rect>
                    </g>
                    <g id="cimbal" transform="translate(1.000000, 1.000000)">
                        <g id="Oval" transform="translate(0.000000, 3.000000)">
                            <mask id="mask-4" sketch:name="Mask" fill="white">
                                <use xlink:href="#path-3"></use>
                            </mask>
                            <use id="Mask" fill="#FFD740" sketch:type="MSShapeGroup" xlink:href="#path-3"></use>
                            <rect id="Rectangle-20" fill="#FBC02D" sketch:type="MSShapeGroup" mask="url(#mask-4)" x="0" y="0" width="98" height="62"></rect>
                        </g>
                        <g id="Oval" transform="translate(77.000000, 0.000000)">
                            <g id="Rectangle-26" transform="translate(0.000000, 15.080000)">
                                <mask id="mask-6" sketch:name="Mask" fill="white">
                                    <use xlink:href="#path-5"></use>
                                </mask>
                                <use id="Mask" fill="#F9A825" sketch:type="MSShapeGroup" xlink:href="#path-5"></use>
                                <rect fill="#FB8C00" sketch:type="MSShapeGroup" mask="url(#mask-6)" x="0" y="0" width="20.5" height="13.92"></rect>
                            </g>
                            <rect id="Rectangle-21" fill="#CFD8DC" sketch:type="MSShapeGroup" x="19.3611111" y="0" width="2.27777778" height="19.72" rx="8"></rect>
                        </g>
                    </g>
                </g>
            </g>
        </g>
    </g>
</svg>