<?xml version="1.0" encoding="UTF-8" standalone="no"?>
<svg width="91px" height="82px" viewBox="0 0 91 82" version="1.1" xmlns="http://www.w3.org/2000/svg" xmlns:xlink="http://www.w3.org/1999/xlink" xmlns:sketch="http://www.bohemiancoding.com/sketch/ns">
    <!-- Generator: sketchtool 3.5.2 (25235) - http://www.bohemiancoding.com/sketch -->
    <title>right-hand</title>
    <desc>Created with sketchtool.</desc>
    <defs></defs>
    <g id="Welcome" stroke="none" stroke-width="1" fill="none" fill-rule="evenodd" sketch:type="MSPage">
        <g id="Drummar-1" sketch:type="MSArtboardGroup" transform="translate(-952.000000, -51.000000)" fill="#2196F3">
            <g id="controlls" sketch:type="MSLayerGroup" transform="translate(56.000000, 32.000000)">
                <g id="applicatura" transform="translate(341.000000, 8.000000)" sketch:type="MSShapeGroup">
                    <g id="right-hand" transform="translate(555.000000, 11.000000)">
                        <path d="M82.9444444,21.6 C81.3444444,19.9 76.9444444,16.5 74.9444444,15.3 C74.6444444,15.1 74.1444444,15.1 73.8444444,15.4 C72.3444444,17 70.6444444,18.7 70.1444444,19.4 C69.8444444,19.7 69.4444444,20.3 68.9444444,20.9 C68.7444444,21.1 68.9444444,21.4 69.1444444,21.4 C70.0444444,21.5 70.9444444,21.8 71.8444444,22.1 C73.9444444,22.9 79.4444444,28 81.6444444,28.8 C83.8444444,29.7 85.5444444,28.9 86.2444444,27 C86.8444444,25.7 84.6444444,23.3 82.9444444,21.6 Z M70.1444444,23.3 C69.7444444,23.1 68.5444444,22.8 67.9444444,22.6 C67.7444444,22.5 67.5444444,22.6 67.4444444,22.8 C66.3444444,24.1 65.1444444,25.7 64.2444444,26.9 C64.1444444,27.1 64.1444444,27.3 64.3444444,27.4 C66.0444444,28.2 67.8444444,29.2 68.7444444,29.7 C71.3444444,31 76.7444444,32.9 77.7444444,33 C78.8444444,33.1 79.9444444,33.3 80.6444444,31.4 C81.2444444,29.6 70.6444444,23.6 70.1444444,23.3 Z M63.5444444,29 C63.3444444,28.9 63.0444444,29 62.9444444,29.2 C62.8444444,29.3 62.7444444,29.4 62.7444444,29.5 C61.8444444,30.8 60.9444444,32.1 60.1444444,33.6 C60.0444444,33.8 60.1444444,34.2 60.3444444,34.3 C61.3444444,34.8 62.5444444,35.2 63.6444444,35.3 C67.7444444,36 70.5444444,35.1 70.9444444,33.5 C71.1444444,32.5 66.8444444,30.7 63.5444444,29 Z M89.2444444,1.2 C89.2444444,1.2 89.1444444,1 88.1444444,1 C84.6444444,1 75.4444444,3.5 73.7444444,4 C71.5444444,4.6 69.6444444,5.3 66.1444444,8.1 C64.4444444,9.4 61.8444444,11.6 60.4444444,12.7 C60.0444444,13.2 58.7444444,14.4 56.2444444,15.8 C56.1444444,15.8 56.0444444,15.9 56.0444444,15.9 C55.8444444,15.9 55.6444444,15.8 55.5444444,15.6 C55.4444444,15.4 55.5444444,15.1 55.7444444,14.9 C56.4444444,14.5 57.1444444,14.1 57.7444444,13.6 C56.5444444,13.5 54.3444444,13.2 51.1444444,12.8 C50.7444444,12.7 50.3444444,12.7 49.9444444,12.7 C45.4444444,12.7 42.2444444,16 40.4444444,18.7 C39.3444444,20.4 34.6444444,23.4 29.6444444,26.6 C25.7444444,29.2 21.6444444,31.8 19.9444444,33.4 C17.0444444,36.2 7.14444444,42.4 2.94444444,45 C1.74444444,45.7 1.04444444,46.9 1.04444444,48.3 C1.04444444,48.4 0.944444444,58.5 1.04444444,61.9 C1.24444444,69.3 2.74444444,80.3 5.14444444,80.3 C5.64444444,80.3 6.24444444,79.8 6.84444444,78.9 C9.24444444,75.3 13.5444444,70.8 18.3444444,66.8 C23.5444444,62.6 28.3444444,59.8 31.6444444,59.1 C34.0444444,58.6 36.8444444,58.2 39.5444444,57.8 C44.6444444,57.1 49.4444444,56.4 51.6444444,55.1 C54.2444444,53.5 61.2444444,51.6 65.0444444,50.7 C66.2444444,50.4 67.1444444,50.1 67.5444444,50 C68.1444444,49.8 69.3444444,49.7 70.6444444,49.6 C72.4444444,49.5 74.7444444,49.3 75.8444444,48.8 C77.6444444,47.9 81.7444444,46.3 83.8444444,45.7 C84.7444444,45.4 85.3444444,44.7 85.4444444,43.8 C85.5444444,42.6 84.7444444,41.5 83.1444444,40.7 C81.2444444,39.7 77.8444444,39.1 74.6444444,39.1 C72.2444444,39.1 70.0444444,39.4 67.9444444,40 C66.1444444,40.5 64.6444444,40.8 63.2444444,40.8 C60.8444444,40.8 59.4444444,39.9 58.1444444,39.1 C58.0444444,39 57.9444444,38.9 57.7444444,38.9 C56.9444444,38.4 56.9444444,37.3 57.7444444,35.5 C57.7444444,35.4 57.7444444,35.3 57.8444444,35.3 C58.5444444,33.7 60.7444444,30 62.4444444,27.6 C63.8444444,25.6 67.5444444,20.9 68.7444444,19.5 C69.6444444,18.4 72.9444444,15 74.8444444,13.2 C75.1444444,12.9 75.3444444,12.7 75.5444444,12.5 L75.9444444,12.1 C75.9444444,12.1 76.0444444,12 76.1444444,12 C77.4444444,11 80.9444444,9.1 84.0444444,7.5 C86.0444444,6.5 87.9444444,5.5 88.3444444,5.1 C89.4444444,3.9 89.6444444,2.3 89.2444444,1.2 Z" id="Shape" transform="translate(45.217264, 40.650000) scale(-1, 1) translate(-45.217264, -40.650000) "></path>
                    </g>
                </g>
            </g>
        </g>
    </g>
</svg>