<?xml version="1.0" encoding="UTF-8" standalone="no"?>
<svg width="88px" height="50px" viewBox="0 0 88 50" version="1.1" xmlns="http://www.w3.org/2000/svg" xmlns:xlink="http://www.w3.org/1999/xlink" xmlns:sketch="http://www.bohemiancoding.com/sketch/ns">
    <!-- Generator: sketchtool 3.5.2 (25235) - http://www.bohemiancoding.com/sketch -->
    <title>sn-left-hand-fibish-2</title>
    <desc>Created with sketchtool.</desc>
    <defs>
        <path id="path-1" d="M88,20.3225806 C88,28.2842712 68.300529,35 44,35 C19.699471,35 0,28.2842712 0,20.3225806 L0,1.13686838e-13 L88,1.13686838e-13 L88,20.3225806 L88,20.3225806 Z"></path>
        <ellipse id="path-3" cx="44" cy="14.5" rx="44" ry="14.5"></ellipse>
    </defs>
    <g id="Welcome" stroke="none" stroke-width="1" fill="none" fill-rule="evenodd" sketch:type="MSPage">
        <g id="Drummar-3" sketch:type="MSArtboardGroup" transform="translate(-411.000000, -600.000000)">
            <g id="notes" sketch:type="MSLayerGroup" transform="translate(235.000000, 189.000000)">
                <g id="finish" transform="translate(0.000000, 362.000000)">
                    <g id="sn-left-hand-fibish-2" transform="translate(176.000000, 49.000000)">
                        <g id="Rectangle-230" transform="translate(0.000000, 15.000000)">
                            <mask id="mask-2" sketch:name="Mask" fill="white">
                                <use xlink:href="#path-1"></use>
                            </mask>
                            <use id="Mask" fill="#00C853" sketch:type="MSShapeGroup" xlink:href="#path-1"></use>
                            <path d="M0,-2 L39,-2 L39,35 L0,35 L0,-2 Z" fill="#43A047" sketch:type="MSShapeGroup" mask="url(#mask-2)"></path>
                        </g>
                        <g id="Rectangle-230">
                            <mask id="mask-4" sketch:name="Mask" fill="white">
                                <use xlink:href="#path-3"></use>
                            </mask>
                            <use id="Mask" fill="#A5D6A7" sketch:type="MSShapeGroup" xlink:href="#path-3"></use>
                            <path d="M0,0 L49,0 L39,29 L0,29 L0,0 Z" fill="#81C784" sketch:type="MSShapeGroup" mask="url(#mask-4)"></path>
                        </g>
                    </g>
                </g>
            </g>
        </g>
    </g>
</svg>