<?xml version="1.0" encoding="UTF-8" standalone="no"?>
<svg width="134px" height="232px" viewBox="0 0 134 232" version="1.1" xmlns="http://www.w3.org/2000/svg" xmlns:xlink="http://www.w3.org/1999/xlink" xmlns:sketch="http://www.bohemiancoding.com/sketch/ns">
    <!-- Generator: sketchtool 3.5.2 (25235) - http://www.bohemiancoding.com/sketch -->
    <title>sn</title>
    <desc>Created with sketchtool.</desc>
    <defs>
        <path d="M61,0 L61,6 L63,6 L63,12 L61,12 L61,66 L63,66 L63,71 L111,129 L112,136 L113,136 L116,144 L116,146 L106,146 L106,137 L107,137 L106,131 L80,99 L63,113 L63,118 L59,118 L59,122 L60,122 L60,132 L56,132 L56,122 L57,122 L57,118 L53,118 L53,113 L36,99 L10,131 L9,137 L10,137 L10,146 L0,146 L0,144 L3,136 L4,136 L5,129 L54,71 L53,69 L52,70 L52,72 L48,72 L48,70 L49,69 L48,69 C47.7185,69.053444 47.4324,68.7674849 47,68 C47.4324,68.0770082 47.7185,67.7910491 48,68 L49,68 L48,67 L48,65 L52,65 L52,67 L53,68 L53,66 L55,66 L55,12 L53,12 L53,10 L52,10 L52,12 L48,12 L48,10 L49,9 L48,9 C47.7185,9.43283009 47.4324,9.15216473 47,9 C47.4324,8.45100073 47.7185,8.16434251 48,8 L49,8 L48,8 L48,5 L52,5 L52,8 L53,8 L53,6 L55,6 L55,0 L61,0 Z M61,110 L61,78 L77,97 L61,110 Z M55,111 L39,98 L55,79 L55,111 Z" id="path-1"></path>
        <ellipse id="path-3" cx="60.5" cy="16" rx="60.5" ry="16"></ellipse>
        <path d="M66,0 C34.2126,0 0,6.95957041 0,22 L0,57 C0,72.2931265 34.2126,84 66,84 C97.7856,84 132,72.2931265 132,57 L132,22 C132,6.95957041 97.7856,0 66,0 L66,0 Z M108.869565,29.7931034 C97.5463065,33.9521901 82.2884784,36 66.5043478,36 C49.7163727,36 34.4567255,33.9521901 23.1304348,29.7931034 C10.675163,26.2127954 8,21.8611994 8,21.5172414 C8,20.1408733 10.675163,15.7892773 23.1304348,12.2068966 C34.4567255,8.04677352 49.7163727,6 66.5043478,6 C82.2884784,6 97.5463065,8.04677352 108.869565,12.2068966 C121.325848,15.7872046 124,20.1388006 124,21.5172414 C124,21.8611994 121.327869,26.2127954 108.869565,29.7931034 L108.869565,29.7931034 Z" id="path-5"></path>
    </defs>
    <g id="Welcome" stroke="none" stroke-width="1" fill="none" fill-rule="evenodd" sketch:type="MSPage">
        <g id="Drummar-1" sketch:type="MSArtboardGroup" transform="translate(-361.000000, -702.000000)">
            <g id="drums" sketch:type="MSLayerGroup" transform="translate(29.000000, 667.000000)">
                <g id="sn" transform="translate(332.000000, 35.000000)">
                    <g id="stand" transform="translate(9.000000, 85.000000)">
                        <mask id="mask-2" sketch:name="Mask" fill="white">
                            <use xlink:href="#path-1"></use>
                        </mask>
                        <use id="Mask" fill="#CFD8DC" sketch:type="MSShapeGroup" xlink:href="#path-1"></use>
                        <rect id="Rectangle-15" fill="#B0BEC5" sketch:type="MSShapeGroup" mask="url(#mask-2)" x="-8" y="-1" width="66" height="148"></rect>
                    </g>
                    <g id="head" transform="translate(8.000000, 6.000000)">
                        <mask id="mask-4" sketch:name="Mask" fill="white">
                            <use xlink:href="#path-3"></use>
                        </mask>
                        <use id="Mask" fill="#FFFFFF" sketch:type="MSShapeGroup" xlink:href="#path-3"></use>
                        <rect id="Rectangle-7" fill="#F5F5F5" sketch:type="MSShapeGroup" mask="url(#mask-4)" x="0" y="0" width="59" height="32"></rect>
                    </g>
                    <g id="shell" transform="translate(1.000000, 1.000000)">
                        <mask id="mask-6" sketch:name="Mask" fill="white">
                            <use xlink:href="#path-5"></use>
                        </mask>
                        <use id="Mask" fill="#009688" sketch:type="MSShapeGroup" xlink:href="#path-5"></use>
                        <rect id="Rectangle-1" fill="#00897B" sketch:type="MSShapeGroup" mask="url(#mask-6)" x="0" y="0" width="66" height="84"></rect>
                    </g>
                </g>
            </g>
        </g>
    </g>
</svg>