<?xml version="1.0" encoding="UTF-8" standalone="no"?>
<svg width="230px" height="232px" viewBox="0 0 230 232" version="1.1" xmlns="http://www.w3.org/2000/svg" xmlns:xlink="http://www.w3.org/1999/xlink" xmlns:sketch="http://www.bohemiancoding.com/sketch/ns">
    <!-- Generator: sketchtool 3.5.2 (25235) - http://www.bohemiancoding.com/sketch -->
    <title>tt-1-2</title>
    <desc>Created with sketchtool.</desc>
    <defs>
        <path d="M61,6 L61,44 L63,44 L63,49 L61,49 L61,104 L63,104 L63,109 L111,167 L112,174 L113,174 L116,182 L116,184 L106,184 L106,175 L107,175 L106,169 L80,137 L63,151 L63,156 L59,156 L59,160 L60,160 L60,170 L56,170 L56,160 L57,160 L57,156 L53,156 L53,151 L36,137 L10,169 L9,175 L10,175 L10,184 L0,184 L0,182 L3,174 L4,174 L5,167 L54,109 L53,109 L53,107 L52,108 L52,110 L48,110 L48,107 L49,107 L48,107 C47.7185,107.025051 47.4324,106.738986 47,106 C47.4324,106.048255 47.7185,105.76219 48,106 L49,106 L48,105 L48,103 L52,103 L52,105 L53,106 L53,104 L55,104 L55,49 L53,49 L53,48 L52,48 L52,50 L48,50 L48,48 L49,47 L48,47 C47.7185,47.3824375 47.4324,47.1016685 47,47 C47.4324,46.4002458 47.7185,46.1134818 48,46 L49,46 L48,46 L48,43 L52,43 L52,45 L53,46 L53,44 L55,44 L55,6 L61,6 Z M61,147 L61,115 L77,134 L61,147 Z M55,148 L39,135 L55,116 L55,148 Z M43,0 L74,0 L74,6 L43,6 L43,0 Z" id="path-1"></path>
        <ellipse id="path-3" cx="43" cy="12" rx="43" ry="12"></ellipse>
        <path d="M48,0 C24.8819,0 0,5.029875 0,16 L0,82 C0,93.5390801 24.8819,102 48,102 C71.1168,102 96,93.5390801 96,82 L96,16 C96,5.029875 71.1168,0 48,0 L48,0 Z M78.8674699,21.8095238 C70.8441214,24.4979718 59.7952925,26 48.5060241,26 C36.2085314,26 25.1583943,24.4979718 17.1325301,21.8095238 C7.93720291,18.822784 6,15.631366 6,15.5238095 C6,14.3699925 7.93720291,11.178679 17.1325301,8.19047619 C25.1583943,5.50077422 36.2085314,4 48.5060241,4 C59.7952925,4 70.8441214,5.50077422 78.8674699,8.19047619 C88.0640046,11.1773205 90,14.3687385 90,15.5238095 C90,15.631366 88.0653128,18.822784 78.8674699,21.8095238 L78.8674699,21.8095238 Z" id="path-5"></path>
        <ellipse id="path-7" cx="52" cy="14" rx="52" ry="14"></ellipse>
        <path d="M58,0 C30.0657,0 0,6.11416518 0,20 L0,100 C0,113.714152 30.0657,124 58,124 C85.9328,124 116,113.714152 116,100 L116,20 C116,6.11416518 85.9328,0 58,0 L58,0 Z M95.8712871,26.8 C85.7390615,30.2248664 72.322642,32 58.5049505,32 C43.6817064,32 30.26377,30.2248664 20.1287129,26.8 C9.35234563,23.5179088 7,19.7460692 7,19.52 C7,18.2559748 9.35234563,14.4837264 20.1287129,11.2 C30.26377,7.77421384 43.6817064,6 58.5049505,6 C72.322642,6 85.7390615,7.77421384 95.8712871,11.2 C106.648868,14.4827044 109,18.2539308 109,19.52 C109,19.7460692 106.65089,23.5179088 95.8712871,26.8 L95.8712871,26.8 Z" id="path-9"></path>
    </defs>
    <g id="Welcome" stroke="none" stroke-width="1" fill="none" fill-rule="evenodd" sketch:type="MSPage">
        <g id="Drummar-1" sketch:type="MSArtboardGroup" transform="translate(-793.000000, -702.000000)">
            <g id="drums" sketch:type="MSLayerGroup" transform="translate(29.000000, 667.000000)">
                <g id="tt-1-2" transform="translate(764.000000, 35.000000)">
                    <g id="stand" transform="translate(47.000000, 47.000000)">
                        <mask id="mask-2" sketch:name="Mask" fill="white">
                            <use xlink:href="#path-1"></use>
                        </mask>
                        <use id="Mask" fill="#CFD8DC" sketch:type="MSShapeGroup" xlink:href="#path-1"></use>
                        <rect id="Rectangle-15" fill="#B0BEC5" sketch:type="MSShapeGroup" mask="url(#mask-2)" x="0" y="-42" width="58" height="226"></rect>
                    </g>
                    <g id="tt-1" transform="translate(1.000000, 1.000000)">
                        <g id="Head" transform="translate(5.000000, 3.000000)">
                            <mask id="mask-4" sketch:name="Mask" fill="white">
                                <use xlink:href="#path-3"></use>
                            </mask>
                            <use id="Mask" fill="#FFFFFF" sketch:type="MSShapeGroup" xlink:href="#path-3"></use>
                            <rect id="Rectangle-7" fill="#F5F5F5" sketch:type="MSShapeGroup" mask="url(#mask-4)" x="0" y="0" width="42" height="24"></rect>
                        </g>
                        <g id="Shell">
                            <mask id="mask-6" sketch:name="Mask" fill="white">
                                <use xlink:href="#path-5"></use>
                            </mask>
                            <use id="Mask" fill="#009688" sketch:type="MSShapeGroup" xlink:href="#path-5"></use>
                            <rect id="Rectangle-1" fill="#00897B" sketch:type="MSShapeGroup" mask="url(#mask-6)" x="-1" y="-1" width="48" height="104"></rect>
                        </g>
                    </g>
                    <g id="tt-2" transform="translate(113.000000, 1.000000)">
                        <g id="Head" transform="translate(6.000000, 5.000000)">
                            <mask id="mask-8" sketch:name="Mask" fill="white">
                                <use xlink:href="#path-7"></use>
                            </mask>
                            <use id="Mask" fill="#FFFFFF" sketch:type="MSShapeGroup" xlink:href="#path-7"></use>
                            <rect id="Rectangle-6" fill="#F5F5F5" sketch:type="MSShapeGroup" mask="url(#mask-8)" x="0" y="0" width="52" height="28"></rect>
                        </g>
                        <g id="Shell">
                            <mask id="mask-10" sketch:name="Mask" fill="white">
                                <use xlink:href="#path-9"></use>
                            </mask>
                            <use id="Mask" fill="#009688" sketch:type="MSShapeGroup" xlink:href="#path-9"></use>
                            <rect id="Rectangle-1" fill="#00897B" sketch:type="MSShapeGroup" mask="url(#mask-10)" x="0" y="-1" width="58" height="126"></rect>
                        </g>
                    </g>
                </g>
            </g>
        </g>
    </g>
</svg>